<svg width="304" height="25" viewBox="0 0 304 25" fill="none" xmlns="http://www.w3.org/2000/svg">
<path fill-rule="evenodd" clip-rule="evenodd" d="M53.4568 24.127V15.3343H39.8397V24.127H32.4966V1.049H39.8397V9.13993H53.4568V1.049H60.8V24.127H53.4568ZM160.794 24.127V15.1654L146.759 1.049H156.502L164.577 9.13364L172.622 1.049H182.4L168.366 15.1654V24.127H160.794ZM293.73 24.127L283.904 14.5454L280.101 17.1469V24.127H272.552V1.049H280.101V9.34868L292.115 1.049H303.765L289.704 10.6348L304 24.127H293.73ZM107.773 10.1228H98.5536V7.01781H107.773C109.857 7.01781 110.917 7.27586 110.917 8.56298C110.917 9.86584 109.858 10.1228 107.773 10.1228ZM112.747 15.3941C116.079 14.4038 118.241 11.7918 118.241 8.47277C118.242 1.049 110.412 1.049 107.071 1.049H91.2V24.127H98.5536V16.0927H104.743L111.771 24.127H120.552L112.747 15.3941ZM138.173 10.1228H128.954V7.01781H138.173C140.257 7.01781 141.317 7.27586 141.317 8.56298C141.317 9.86584 140.258 10.1228 138.173 10.1228ZM143.148 15.3941C146.479 14.4038 148.641 11.7918 148.641 8.47277C148.641 1.049 140.811 1.049 137.468 1.049H121.6V24.127H128.954V16.0927H135.143L142.171 24.127H150.952L143.148 15.3941ZM195.308 18.0438H190.861V7.1332H195.308C201.736 7.1332 204.383 8.51053 204.383 12.5313C204.383 16.3728 201.844 18.0438 195.308 18.0438ZM196.524 1.049H183.448V24.127H196.727C206.135 24.127 211.752 19.7663 211.752 12.4621C211.752 5.20828 206.202 1.049 196.526 1.049M71.4201 18.0438V15.6311H88.6967V9.54589H71.4211V7.1332H88.6967V1.049H63.9448V24.127H89.1034V18.0438H71.4201ZM221.325 18.0438V15.6311H238.6V9.54589H221.325V7.1332H238.6V1.049H213.848V24.127H239.007V18.0438H221.325ZM15.6057 18.0354C11.7197 18.0354 7.56645 16.4987 7.56645 12.1904C7.56645 7.15103 12.0856 6.09259 15.8772 6.09259C18.8186 6.09259 22.2255 7.11746 22.8377 9.58576H30.2553C30.2553 9.58576 30.118 8.77173 29.8245 7.83917C28.1357 2.71061 23.2172 0 15.6057 0C5.83366 0 0 4.38796 0 11.7404C0 19.3803 5.8368 24.127 15.2346 24.127C26.7185 24.127 29.5855 18.5809 30.2721 15.2734C30.3616 14.745 30.4044 14.2097 30.4 13.6737H23.1742C22.604 16.9214 18.8847 18.0354 15.6057 18.0354ZM255.661 18.0354C251.775 18.0354 247.622 16.4987 247.622 12.1904C247.622 7.15103 252.141 6.09259 255.932 6.09259C258.874 6.09259 262.281 7.11746 262.893 9.58576H270.311C270.311 9.58576 270.173 8.77173 269.88 7.83917C268.191 2.71061 263.272 0 255.661 0C245.889 0 240.055 4.38796 240.055 11.7404C240.055 19.3803 245.892 24.127 255.29 24.127C266.774 24.127 269.641 18.5809 270.327 15.2734C270.417 14.745 270.46 14.2097 270.455 13.6737H263.229C262.659 16.9214 258.94 18.0354 255.661 18.0354Z" fill="white"/>
</svg>
