<svg width="196" height="38" viewBox="0 0 196 38" fill="none" xmlns="http://www.w3.org/2000/svg">
<path d="M152.83 29.8098C154.106 29.8098 155.167 29.3675 156.012 28.4814C156.858 27.5954 157.281 26.4691 157.281 25.0851C157.281 23.7011 156.865 22.5192 156.026 21.6331C155.188 20.7544 154.126 20.3194 152.844 20.3194C151.561 20.3194 150.494 20.7617 149.641 21.6551C148.788 22.5411 148.366 23.6894 148.366 25.0866C148.366 26.4838 148.788 27.6188 149.621 28.4961C150.453 29.3748 151.527 29.8098 152.83 29.8098Z" fill="white"/>
<path d="M5.39381 6.53196C5.3806 3.58524 2.98091 1.19947 0.014677 1.19947V1.20679L0.00733851 1.19361L0 29.8171H5.39968L5.38647 19.1858L5.39381 6.53196Z" fill="white"/>
<path d="M22.2255 23.3013C21.1438 24.4422 19.7788 25.0163 18.135 25.0163C16.4912 25.0163 15.1952 24.4349 14.1076 23.2735C13.0186 22.1121 12.4711 20.6314 12.4711 18.8329C12.4711 17.0344 13.0054 15.5815 14.0797 14.4406C15.1541 13.2998 16.4985 12.7256 18.1144 12.7256C19.7304 12.7256 21.1438 13.2866 22.2255 14.4128C23.3072 15.5405 23.8546 17.0066 23.8546 18.8197C23.8473 20.6665 23.3072 22.1604 22.2255 23.3028M28.8463 6.3826C28.8331 3.51204 26.4892 1.18045 23.5919 1.18045L23.5846 10.706C22.6555 9.77161 21.6501 9.07301 20.5626 8.6102C19.4603 8.14008 18.2891 7.89842 17.0342 7.89842C14.3102 7.89842 12.0015 8.92948 10.0949 10.9828C8.18837 13.0361 7.23876 15.6724 7.23876 18.8885C7.23876 22.1047 8.22359 24.5886 10.1918 26.6771C12.16 28.7656 14.4892 29.804 17.1868 29.804C18.386 29.804 19.5014 29.5901 20.5273 29.1669C21.5533 28.7378 22.5792 28.0392 23.6051 27.0711V29.2709H28.8463V7.17786L28.839 7.17053V6.3826H28.8463Z" fill="white"/>
<path d="M38.0723 13.5692C39.1745 12.7535 40.4573 12.3449 41.9191 12.3449C43.2635 12.3449 44.4495 12.711 45.468 13.4374C46.4866 14.1638 47.1662 15.1114 47.5126 16.2728H36.1511C36.7337 14.9796 37.3781 14.0804 38.0708 13.5678M51.3609 25.2521L51.3888 25.2316C49.8638 23.5298 47.3966 23.1914 45.5033 24.2972C45.4901 24.3045 45.4754 24.3045 45.4622 24.3104C44.401 24.9196 43.2166 25.2301 41.9059 25.2301C40.2694 25.2301 38.925 24.7937 37.8639 23.9164C36.8101 23.045 36.1584 21.8616 35.9162 20.3824H52.7479L52.7684 19.3865C52.7684 15.9418 51.7425 13.1679 49.6774 11.0648C47.6182 8.96902 44.9426 7.91747 41.6564 7.91747C38.5581 7.91747 35.9867 8.96902 33.9348 11.0648C31.883 13.1606 30.857 15.8027 30.857 18.9852C30.857 22.1677 31.883 24.6707 33.948 26.7328C36.0131 28.7934 38.6755 29.8245 41.9544 29.8245C44.062 29.8245 45.8922 29.451 47.423 28.7041C48.948 27.9572 50.2645 26.8089 51.3609 25.2521Z" fill="white"/>
<path d="M69.6014 23.3261C68.5197 24.467 67.1547 25.0412 65.5109 25.0412C63.8671 25.0412 62.5711 24.4597 61.4835 23.2983C60.3945 22.1369 59.847 20.6562 59.847 18.8578C59.847 17.0593 60.3813 15.6064 61.4556 14.4655C62.53 13.3246 63.8744 12.7505 65.4903 12.7505C67.1063 12.7505 68.5197 13.3114 69.6014 14.4377C70.6831 15.5654 71.2305 17.0314 71.2305 18.8446C71.2232 20.6914 70.6831 22.1852 69.6014 23.3276M76.2222 13.1152C76.209 10.2446 73.8651 7.91303 70.9678 7.91303L70.9605 10.7279C70.0314 9.79354 69.026 9.09494 67.9385 8.63213C66.8362 8.16201 65.665 7.92035 64.4101 7.92035C61.686 7.92035 59.3773 8.95141 57.4708 11.0047C55.5643 13.0581 54.6146 15.6943 54.6146 18.9105C54.6146 22.1267 55.5995 24.6106 57.5677 26.699C59.5359 28.7875 61.8651 29.8259 64.5627 29.8259C65.7619 29.8259 66.8773 29.6121 67.9032 29.1888C68.9292 28.7597 69.9551 28.0611 70.981 27.093V29.2928H76.2222V13.909L76.2149 13.9017V13.1137H76.2222V13.1152Z" fill="white"/>
<path d="M85.8548 23.3013C86.9365 24.4422 88.3014 25.0163 89.9453 25.0163C91.5891 25.0163 92.8851 24.4349 93.9726 23.2735C95.0617 22.1121 95.6091 20.6314 95.6091 18.8329C95.6091 17.0344 95.0749 15.5815 94.0005 14.4406C92.9262 13.2998 91.5817 12.7256 89.9658 12.7256C88.3499 12.7256 86.9365 13.2866 85.8548 14.4128C84.7731 15.5405 84.2256 17.0066 84.2256 18.8197C84.2329 20.6665 84.7731 22.1604 85.8548 23.3028M79.234 6.3826C79.2472 3.51204 81.5911 1.18045 84.4883 1.18045L84.4957 10.706C85.4247 9.77161 86.4301 9.07301 87.5177 8.6102C88.6199 8.14008 89.7911 7.89842 91.046 7.89842C93.7701 7.89842 96.0788 8.92948 97.9853 10.9828C99.8919 13.0376 100.841 15.6724 100.841 18.8885C100.841 22.1047 99.8567 24.5886 97.8885 26.6771C95.9203 28.7656 93.591 29.804 90.8934 29.804C89.6943 29.804 88.5788 29.5901 87.5529 29.1669C86.527 28.7378 85.501 28.0392 84.4751 27.0711V29.2709H79.234V7.17786L79.2413 7.17053V6.3826H79.234Z" fill="white"/>
<path d="M117.679 23.3496C116.597 24.4905 115.232 25.0647 113.589 25.0647C111.945 25.0647 110.649 24.4832 109.561 23.3218C108.472 22.1604 107.925 20.6797 107.925 18.8812C107.925 17.0828 108.459 15.6299 109.533 14.489C110.608 13.3481 111.952 12.774 113.568 12.774C115.184 12.774 116.597 13.3349 117.679 14.4612C118.761 15.5874 119.308 17.0549 119.308 18.8681C119.301 20.7149 118.761 22.2087 117.679 23.3511M124.298 13.1401C124.285 10.2696 121.941 7.93799 119.044 7.93799L119.037 10.7529C118.108 9.81849 117.102 9.1199 116.015 8.65709C114.912 8.18697 113.741 7.94531 112.486 7.94531C109.762 7.94531 107.454 8.97637 105.547 11.0297C103.64 13.083 102.691 15.7192 102.691 18.9354C102.691 22.1516 103.676 24.6355 105.644 26.724C107.612 28.8125 109.941 29.8509 112.639 29.8509C113.838 29.8509 114.954 29.637 115.979 29.2138C117.005 28.7847 118.031 28.0861 119.057 27.118V29.3178H124.298V13.9339L124.291 13.9266V13.1387H124.298V13.1401Z" fill="white"/>
<path d="M148.367 8.38902L143.8 18.2324L134.976 37.512H129.61L134.177 27.5719L126.24 8.29382H131.591L137.019 21.3739L141.92 10.7221C143.057 8.31433 145.934 7.27009 148.366 8.39048L148.367 8.38902Z" fill="white"/>
<path d="M181.179 28.5752L174.718 8.50768L168.611 28.5532L163.087 28.5811L171.925 0.36615L171.933 0.352967C174.567 -0.615112 177.465 0.713251 178.442 3.31286L186.705 28.5752H181.179Z" fill="white"/>
<path d="M195.994 5.33835C195.981 2.39164 193.581 0.00585842 190.615 0.00585842V0.0131807L190.608 0L190.6 28.6235H196L195.987 17.9922L195.994 5.33835Z" fill="white"/>
</svg>
