<svg width="183" height="40" viewBox="0 0 183 40" fill="none" xmlns="http://www.w3.org/2000/svg">
<path d="M80.6964 6.99871H83.2464V9.29495H83.3045C84.034 7.74903 85.6027 6.64295 87.1779 6.64295C87.9913 6.64295 88.398 6.73351 88.9855 6.84994V9.30142C88.4884 9.09444 87.9397 9.03622 87.4684 9.03622C85.0217 9.03622 83.4207 11.3713 83.4207 15.11V21.8823H80.6964V6.99871ZM164.337 14.7801C163.756 14.7801 163.175 14.7219 162.593 14.7219C161.109 14.7219 157.448 14.9547 157.448 17.6067C157.448 19.1915 158.959 20.0453 160.211 20.0453C162.916 20.0453 164.337 18.3376 164.337 16.0931V14.7801ZM156.222 8.02717C157.59 7.21863 159.217 6.63648 161.109 6.63648C165.35 6.63648 167.054 8.71928 167.054 12.7878V21.8823H164.621V19.9871H164.562C163.923 20.8862 162.471 22.2445 159.972 22.2445C156.77 22.2445 154.53 20.8538 154.53 17.5873C154.53 13.8486 158.604 12.6843 161.425 12.6843C162.503 12.6843 163.258 12.6843 164.33 12.7426C164.33 10.1746 163.4 8.84217 160.67 8.84217C159.127 8.84217 157.474 9.43726 156.364 10.3881L156.222 8.02717ZM98.2559 14.7801C97.6749 14.7801 97.0939 14.7219 96.5129 14.7219C95.028 14.7219 91.3677 14.9547 91.3677 17.6067C91.3677 19.1915 92.8783 20.0453 94.1307 20.0453C96.8356 20.0453 98.2559 18.3376 98.2559 16.0931V14.7801ZM90.1475 8.02717C91.5161 7.21863 93.143 6.63648 95.0345 6.63648C99.2759 6.63648 100.987 8.71928 100.987 12.7878V21.8823H98.5529V19.9871H98.4948C97.8556 20.8862 96.4031 22.2445 93.9048 22.2445C90.7027 22.2445 88.4626 20.8538 88.4626 17.5873C88.4626 13.8486 92.5361 12.6843 95.3573 12.6843C96.4354 12.6843 97.1907 12.6843 98.2624 12.7426C98.2624 10.1746 97.3327 8.84217 94.602 8.84217C93.0591 8.84217 91.4064 9.43726 90.296 10.3881L90.1475 8.02717ZM103.207 21.8823H105.932V14.9935C105.932 11.3519 107.333 8.8357 110.451 8.8357C112.846 8.98448 113.601 10.6792 113.601 14.1591V21.8823H116.325V13.0207C116.325 9.01682 114.615 6.63648 110.774 6.63648C108.701 6.63648 106.719 7.65201 105.899 9.33377H105.841V6.99871H103.207V21.8823ZM133.982 21.4295C135.234 22.0957 136.661 22.238 138.055 22.238C140.702 22.238 143.233 20.7891 143.233 17.6003C143.233 12.8202 136.803 13.6999 136.803 10.6468C136.803 9.41785 138.023 8.82924 139.417 8.82924C140.057 8.82924 141.69 9.21087 142.297 9.5925L142.529 7.21863C141.451 6.88875 140.405 6.63001 139.127 6.63001C136.19 6.63001 133.891 8.10479 133.891 11.2096C133.891 15.401 140.321 15.1682 140.321 17.8978C140.321 19.5084 138.778 20.0388 137.532 20.0388C136.745 20.0388 135.202 19.6895 134.124 18.9845L133.982 21.4295ZM153.639 6.99871H149.708V2.67788L146.984 3.5511V6.99224H143.633V9.19146H146.984V17.9237C146.984 20.9056 148.72 22.2316 151.541 22.2316C152.413 22.2316 153.259 21.9987 153.872 21.8241V19.5019C153.465 19.7671 152.852 20.0323 152.006 20.0323C150.754 20.0323 149.708 19.0944 149.708 17.3674V9.19146H153.639V6.99871ZM175.912 20.0388C178.997 20.0388 180.276 16.9599 180.276 14.4631C180.276 11.6753 178.849 8.82924 175.886 8.82924C172.923 8.82924 171.754 11.643 171.812 14.3726C171.754 16.727 172.974 20.0388 175.912 20.0388ZM180.392 19.806H180.334C179.604 20.912 177.919 22.2445 175.273 22.2445C170.792 22.2445 168.901 18.2536 168.901 14.1656C168.901 10.1552 170.999 6.63648 175.305 6.63648C177.894 6.63648 179.378 7.652 180.218 9.01682H180.276V0H183V21.8823H180.392V19.806ZM125.196 20.0388C128.281 20.0388 129.56 16.9599 129.56 14.4631C129.56 11.6753 128.133 8.82924 125.17 8.82924C122.207 8.82924 121.038 11.643 121.096 14.3726C121.038 16.727 122.258 20.0388 125.196 20.0388ZM129.676 19.806H129.618C128.888 20.912 127.203 22.2445 124.556 22.2445C120.076 22.2445 118.185 18.2536 118.185 14.1656C118.185 10.1552 120.283 6.63648 124.589 6.63648C127.177 6.63648 128.662 7.652 129.502 9.01682H129.56V0H132.284V21.8823H129.676V19.806ZM23.105 18.577C23.105 15.8344 20.8907 13.6158 18.1535 13.6158H0V6.99871H16.5976C17.5208 6.99871 18.3536 7.3674 18.9475 7.97542L28.7279 17.7749C29.3347 18.37 29.7027 19.2044 29.7027 20.1294V36.7594H23.105V18.577ZM39.5219 18.577C39.5219 15.8344 41.7362 13.6158 44.4734 13.6158H62.6268V6.99871H46.0292C45.106 6.99871 44.2733 7.3674 43.6793 7.97542L33.8925 17.7749C33.2856 18.37 32.9177 19.2109 32.9177 20.1358V36.7658H39.5219V18.577ZM85.564 35.7115C85.3122 36.0931 84.9636 36.3907 84.5181 36.6106C84.0727 36.8305 83.5756 36.9405 83.0333 36.9405C82.3361 36.9405 81.7422 36.7529 81.2645 36.3842C80.7803 36.0155 80.4252 35.5239 80.1928 34.9159C79.9604 34.3079 79.8442 33.6417 79.8442 32.9107C79.8442 32.2186 79.9669 31.5912 80.2057 31.022C80.4446 30.4528 80.8126 30 81.2903 29.6572C81.768 29.3144 82.3555 29.1462 83.0462 29.1462C84.2018 29.1462 85.0217 29.5472 85.5059 30.3428H85.5317V25.8215H86.9003V36.7658H85.5898V35.7115H85.564ZM85.5317 33.0595C85.5317 32.5938 85.4542 32.1475 85.2928 31.7206C85.1314 31.2937 84.8861 30.9444 84.5569 30.6727C84.2276 30.401 83.8145 30.2652 83.3174 30.2652C82.6654 30.2652 82.1683 30.5175 81.8197 31.022C81.4711 31.5265 81.2967 32.1669 81.2967 32.9495C81.2967 33.784 81.484 34.4761 81.8584 35.0194C82.2328 35.5627 82.7299 35.8344 83.3497 35.8344C83.8274 35.8344 84.2276 35.6986 84.5569 35.4269C84.8861 35.1552 85.1314 34.806 85.2928 34.3855C85.4542 33.9651 85.5317 33.5123 85.5317 33.0595ZM89.9732 29.3208V36.7594H88.6046V29.3208H89.9732ZM94.3567 36.7658C93.6788 36.7658 93.0978 36.5977 92.6136 36.2613C92.1294 35.925 91.7744 35.4787 91.5355 34.9288C91.2966 34.3726 91.1804 33.7646 91.1804 33.1048C91.1804 32.4127 91.3096 31.7658 91.5742 31.1643C91.8389 30.5627 92.2198 30.0776 92.7169 29.7025C93.214 29.3338 93.8144 29.1462 94.4987 29.1462C95.6994 29.1462 96.5193 29.5731 96.9454 30.4269H96.9777V29.3208H98.243V36.4554C98.243 37.6132 97.9267 38.4929 97.294 39.0944C96.6613 39.696 95.6994 40 94.4083 40C93.9499 40 93.5303 39.9612 93.1494 39.8836C92.7685 39.806 92.2973 39.6766 91.7421 39.489L91.8906 38.2212C92.4458 38.4864 92.9106 38.6611 93.2979 38.7516C93.6788 38.8422 94.0984 38.8874 94.5568 38.8874C95.2863 38.8874 95.8544 38.6611 96.2611 38.2018C96.6678 37.7426 96.8744 37.1216 96.8744 36.3325V35.6016H96.8486C96.5645 35.9702 96.203 36.2549 95.764 36.4554C95.3235 36.6617 94.8429 36.7677 94.3567 36.7658ZM96.8744 33.1177C96.8744 32.3027 96.6872 31.6235 96.3063 31.0737C95.9254 30.5239 95.396 30.2587 94.7053 30.2587C94.2792 30.2587 93.9112 30.3946 93.6013 30.6598C93.2915 30.925 93.0526 31.2743 92.8848 31.6947C92.7185 32.119 92.6352 32.5714 92.6394 33.0272C92.6394 33.5123 92.7298 33.9586 92.9041 34.3532C93.0784 34.7477 93.3237 35.0647 93.6336 35.304C93.9435 35.5369 94.305 35.6533 94.7117 35.6533C95.112 35.6533 95.4735 35.5433 95.8027 35.3234C96.132 35.1035 96.3967 34.806 96.5903 34.4179C96.784 34.0298 96.8744 33.6028 96.8744 33.1177ZM101.316 29.3208V36.7594H99.9473V29.3208H101.316ZM105.906 36.9405C105.157 36.9405 104.595 36.7529 104.208 36.3777C103.827 36.0026 103.633 35.4787 103.633 34.793V30.4334H101.961V29.3273H103.633V27.6067L105.002 27.1669V29.3273H106.965V30.4334H105.002V34.5343C105.002 34.8965 105.105 35.2005 105.306 35.4528C105.512 35.705 105.79 35.8344 106.151 35.8344C106.493 35.8344 106.803 35.7439 107.081 35.5692V36.7335C106.597 36.8693 106.203 36.9405 105.906 36.9405ZM112.413 35.8021C112.149 36.1708 111.819 36.4554 111.426 36.6494C111.025 36.8435 110.586 36.9405 110.102 36.9405C109.237 36.9405 108.572 36.74 108.101 36.3454C107.63 35.9444 107.397 35.3752 107.397 34.6248C107.397 33.8551 107.726 33.2536 108.378 32.8202C109.03 32.3868 109.889 32.1734 110.948 32.1734C111.445 32.1734 111.897 32.1863 112.304 32.2057C112.304 31.5265 112.161 31.0285 111.871 30.7244C111.58 30.4204 111.116 30.2652 110.464 30.2652C110.083 30.2652 109.702 30.3299 109.321 30.4592C108.94 30.5886 108.598 30.7762 108.307 31.022L108.236 29.8577C109.024 29.392 109.837 29.1591 110.683 29.1591C111.703 29.1591 112.452 29.4049 112.943 29.903C113.427 30.401 113.672 31.1708 113.672 32.2251V35.4916C113.672 36.0349 113.691 36.4618 113.73 36.7723H112.452V35.8085H112.413V35.8021ZM111.406 33.1889C110.612 33.1889 109.986 33.3118 109.528 33.5511C109.069 33.7904 108.843 34.1462 108.843 34.6184C108.843 34.9677 108.979 35.2587 109.256 35.4851C109.534 35.7115 109.863 35.8279 110.238 35.8279C110.87 35.8279 111.367 35.6468 111.735 35.2911C112.103 34.9288 112.291 34.4567 112.291 33.8745V33.2147C112.22 33.2147 112.103 33.2083 111.929 33.2018C111.761 33.1953 111.58 33.1889 111.406 33.1889ZM116.726 25.8215V36.7658H115.357V25.8215H116.726ZM89.347 25.9961C88.8564 25.9961 88.4561 26.3972 88.4561 26.8887C88.4561 27.3803 88.8564 27.7814 89.347 27.7814C89.8377 27.7814 90.2379 27.3803 90.2379 26.8887C90.2379 26.3907 89.8377 25.9961 89.347 25.9961ZM100.69 25.9961C100.199 25.9961 99.7988 26.3972 99.7988 26.8887C99.7988 27.3803 100.199 27.7814 100.69 27.7814C101.18 27.7814 101.581 27.3803 101.581 26.8887C101.581 26.3907 101.18 25.9961 100.69 25.9961Z" fill="white"/>
</svg>
