<svg width="179" height="41" viewBox="0 0 179 41" fill="none" xmlns="http://www.w3.org/2000/svg">
<path fill-rule="evenodd" clip-rule="evenodd" d="M15.7861 16.1417C15.3784 16.198 14.9714 16.1792 14.5762 16.0884C13.6343 15.8698 11.9894 15.0522 11.553 12.0421C11.3426 10.5945 11.4503 8.81521 11.8553 7.03077C12.5674 3.89151 14.2934 0.405605 16.9976 0.0317827C17.4054 -0.0245844 17.8124 -0.00577408 18.2079 0.0866066C20.921 0.718903 22.0148 4.35777 20.9287 9.14422C20.2165 12.282 18.492 15.7676 15.7861 16.1417ZM21.6111 18.6508C21.8877 19.0066 22.2277 19.3008 22.6229 19.5243C24.9096 20.8256 28.0071 19.3513 30.1442 17.5396C33.4127 14.7673 34.5476 11.3603 32.9057 9.2542C32.629 8.8984 32.289 8.60427 31.8938 8.38074C29.607 7.07939 26.5095 8.55374 24.3725 10.3655C21.104 13.1378 19.969 16.5447 21.6111 18.6508ZM4.29909 18.5532C5.07314 19.2575 5.94063 19.6993 6.80499 19.8304C8.14546 20.0346 9.38258 19.4643 10.0342 18.3404C10.9462 16.7687 10.3808 14.5803 8.65874 13.0168C7.88469 12.3125 7.0172 11.8708 6.15283 11.7397C4.81238 11.5354 3.57524 12.1058 2.92359 13.2298C2.01167 14.8014 2.57701 16.9897 4.29909 18.5532ZM7.23069 28.9106C7.80132 28.4037 8.22355 27.7668 8.44998 27.0647V27.0662C8.94412 25.5381 8.46527 23.8828 7.22916 22.8506C5.57388 21.4713 3.07259 21.541 1.41118 23.0149C0.840557 23.5201 0.418321 24.1571 0.191906 24.8593C-0.302233 26.389 0.176606 28.0425 1.41272 29.0749C3.068 30.4542 5.56776 30.3844 7.23069 28.9106ZM10.9244 39.9811C10.2956 39.9811 9.66833 39.8199 9.11142 39.5161C7.09031 38.4125 6.28096 35.6972 7.22801 33.202C7.96546 31.2601 9.60407 30.0048 11.4003 30.0048C12.0291 30.0048 12.6564 30.1659 13.2133 30.4697C15.2344 31.5732 16.0438 34.2885 15.0967 36.7853C14.3593 38.7272 12.7206 39.9826 10.9244 39.9826V39.9811ZM23.6991 40.8407C24.2452 40.7275 24.7485 40.4935 25.1921 40.1464C26.7311 38.9421 27.2528 36.5787 26.5231 34.1268C25.6175 31.0829 23.1698 29.1534 20.8323 29.6354C20.2862 29.7485 19.7828 29.9825 19.3392 30.3297C17.8003 31.5339 17.2786 33.8974 18.0083 36.3493C18.9139 39.3932 21.3616 41.3227 23.6991 40.8407ZM23.5588 26.9572C23.3844 26.4813 23.3141 25.9853 23.3477 25.4832C23.5206 22.9399 26.3266 21.1204 30.0182 21.156C33.0306 21.1854 35.4388 22.4703 36.1533 24.4293C36.3277 24.9052 36.398 25.4027 36.3644 25.9032C36.1915 28.4466 33.3855 30.2661 29.6939 30.2304C26.6815 30.2009 24.2733 28.9162 23.5588 26.9572ZM134.825 34.4032H128.445L121.483 24.319L118.478 27.2431V34.4032H113.173V5.85678H118.478V20.5156L127.371 12.0691H134.071L125.353 20.5522L134.825 34.4032ZM94.3139 12.066H89.0529V34.4047H94.3156V24.3238C94.3156 22.6844 94.5608 21.2597 95.053 20.0497C95.5436 18.8396 96.2213 17.9396 97.086 17.3482C97.9493 16.7567 98.9398 16.4609 100.056 16.4609C100.986 16.4609 101.77 16.6565 102.408 17.0461C103.047 17.4356 103.537 17.973 103.883 18.6583C104.229 19.3436 104.402 20.1451 104.402 21.0578V34.4032H109.706V19.7253C109.706 18.14 109.354 16.7424 108.649 15.5324C107.945 14.3223 106.968 13.3873 105.718 12.7291C104.468 12.0707 103.007 11.7416 101.492 11.7416C99.9761 11.7416 98.561 12.0644 97.2448 12.7099C95.9288 13.3555 94.9523 14.1617 94.3139 15.13V12.066ZM49.1948 33.7607C47.8394 33.1152 46.7623 32.2216 45.9653 31.0799C45.1681 29.9383 44.7294 28.5994 44.6491 27.0681H49.7923C49.8457 28.1161 50.2373 28.9365 50.9685 29.528C51.6996 30.1195 52.6635 30.4153 53.86 30.4153C54.923 30.4153 55.7609 30.1799 56.3726 29.7093C56.9843 29.2386 57.2893 28.6137 57.2893 27.8347C57.2893 27.2431 57.0896 26.766 56.6919 26.4035C56.2924 26.0409 55.7939 25.758 55.1964 25.556C54.599 25.3541 53.7813 25.106 52.7436 24.8103C51.1493 24.4334 49.8599 24.0519 48.8757 23.6606C47.8913 23.2712 47.0407 22.6319 46.3237 21.7447C45.6068 20.8574 45.2466 19.6616 45.2466 18.1559C45.2466 16.9458 45.5659 15.8519 46.2027 14.8693C46.841 13.8881 47.764 13.1217 48.9747 12.5716C50.1838 12.0214 51.547 11.7448 53.0612 11.7448C54.8159 11.7448 56.3443 12.0278 57.6462 12.5923C58.9482 13.1568 59.9718 13.9565 60.7171 14.9916C61.4607 16.0268 61.8868 17.2559 61.9922 18.6806H56.9685C56.8349 17.8204 56.4308 17.1287 55.7531 16.6041C55.0754 16.0793 54.2185 15.817 53.1808 15.817C52.3034 15.817 51.5989 16.0125 51.0676 16.402C50.5361 16.7916 50.2704 17.2956 50.2704 17.9142C50.2704 18.4516 50.4496 18.8762 50.808 19.1846C51.1665 19.4948 51.6256 19.7491 52.1839 19.9511C52.7421 20.153 53.5251 20.3613 54.5361 20.5759C56.1572 20.9529 57.4937 21.3487 58.544 21.7653C59.5943 22.182 60.4984 22.8609 61.2547 23.8022C62.0126 24.7436 62.3916 26.0473 62.3916 27.7137C62.3916 29.1384 62.0331 30.3692 61.3145 31.4026C60.5975 32.4378 59.5865 33.2503 58.2846 33.8419C56.9827 34.4334 55.5062 34.7291 53.8584 34.7291C52.1037 34.7291 50.5486 34.4063 49.1933 33.7607H49.1948ZM85.2645 17.9523C84.4658 16.0173 83.211 14.5003 81.4956 13.3952C79.7802 12.2949 77.7659 11.7448 75.4546 11.7448C73.3272 11.7448 71.4232 12.2329 69.7329 13.2171C68.0442 14.1983 66.7359 15.5593 65.8067 17.3084C64.8774 19.0575 64.412 21.0307 64.412 23.2361C64.412 25.4415 64.8632 27.4513 65.7674 29.1814C66.6715 30.9161 67.9733 32.274 69.6715 33.2552C71.3743 34.2394 73.3398 34.7276 75.5725 34.7276C77.4593 34.7276 79.1213 34.3983 80.5569 33.7385C81.9956 33.0818 83.1717 32.1818 84.0885 31.0402C85.0051 29.8953 85.6245 28.5994 85.9406 27.1493H80.4783C80.2408 28.1161 79.6936 28.8745 78.8462 29.4247C77.9955 29.9749 76.9027 30.2499 75.5725 30.2499C74.3791 30.2499 73.3257 29.9749 72.4216 29.4247C71.5174 28.8745 70.8162 28.062 70.3115 26.9839C69.9514 26.2158 69.7155 25.3382 69.6181 24.3619H85.939C86.285 22.0229 86.0617 19.8891 85.2629 17.9508L85.2645 17.9523ZM69.8508 20.3756C69.9467 19.9543 70.0788 19.5551 70.2328 19.1863C70.681 18.0955 71.3476 17.283 72.225 16.7455C73.1023 16.2081 74.1779 15.9378 75.4546 15.9378C76.4106 15.9378 77.2707 16.119 78.0255 16.4831C78.7848 16.8425 79.376 17.3704 79.8022 18.0541C80.2283 18.7411 80.4516 19.5138 80.4783 20.3741H69.8523L69.8508 20.3756ZM150.914 13.3952C152.629 14.5003 153.884 16.0173 154.683 17.9523L154.682 17.9508C155.481 19.8891 155.704 22.0229 155.362 24.3619H139.037C139.134 25.3382 139.369 26.2158 139.73 26.9839C140.235 28.062 140.941 28.8745 141.845 29.4247C142.747 29.9749 143.796 30.2499 144.994 30.2499C146.325 30.2499 147.41 29.9749 148.263 29.4247C149.116 28.8745 149.659 28.1161 149.9 27.1493H155.362C155.043 28.5994 154.423 29.8953 153.507 31.0402C152.59 32.1818 151.414 33.0818 149.98 33.7385C148.546 34.3983 146.882 34.7276 144.996 34.7276C142.763 34.7276 140.792 34.2394 139.095 33.2552C137.394 32.274 136.09 30.9161 135.186 29.1814C134.282 27.4513 133.831 25.4415 133.831 23.2361C133.831 21.0307 134.295 19.0558 135.226 17.3084C136.155 15.5593 137.463 14.1983 139.151 13.2171C140.841 12.2329 142.75 11.7448 144.874 11.7448C147.189 11.7448 149.203 12.2949 150.914 13.3952ZM139.275 20.3741H149.9C149.87 19.5138 149.647 18.7411 149.221 18.0541C148.796 17.3704 148.203 16.8425 147.449 16.4831C146.689 16.119 145.834 15.9378 144.874 15.9378C143.6 15.9378 142.521 16.2081 141.644 16.7455C140.766 17.283 140.102 18.0955 139.652 19.1863C139.497 19.5547 139.371 19.9533 139.275 20.3741ZM158.347 12.066H163.609V15.13C164.247 14.1617 165.223 13.3555 166.539 12.7099C167.856 12.0644 169.27 11.7416 170.786 11.7416C172.302 11.7416 173.763 12.0707 175.013 12.7291C176.263 13.3873 177.239 14.3223 177.944 15.5324C178.648 16.7424 179 18.14 179 19.7253V34.4032H173.697V21.0578C173.697 20.1451 173.524 19.3436 173.177 18.6583C172.832 17.973 172.341 17.4356 171.703 17.0461C171.065 16.6565 170.28 16.4609 169.351 16.4609C168.234 16.4609 167.244 16.7567 166.381 17.3482C165.516 17.9396 164.839 18.8396 164.348 20.0497C163.855 21.2597 163.61 22.6844 163.61 24.3238V34.4047H158.347V12.066Z" fill="white"/>
</svg>
