<svg width="167" height="44" viewBox="0 0 167 44" fill="none" xmlns="http://www.w3.org/2000/svg">
<path d="M36.2473 21.1672C36.2473 11.4234 31.6742 9.67632 26.2945 9.67632C18.897 9.67632 15.1984 12.9691 11.8358 16.0603L10.8273 10.3484H0V12.5659H4.37128V41.058H0V43.2756H16.3411V41.058H11.9704L11.9031 21.1672C11.9031 19.4201 12.5085 18.345 13.7858 16.9337C16.745 13.7082 19.7037 11.8939 22.9318 11.8939C27.1013 11.8939 28.6482 14.8508 28.6482 20.0921V41.058H24.277V43.2756H40.6184V41.058H36.2473V21.1672Z" fill="white"/>
<path d="M58.111 41.7971C52.3277 41.7971 48.8303 36.2868 48.8303 26.8118C48.8303 17.3368 52.3277 11.7595 58.111 11.7595C63.8268 11.7595 67.3241 17.3368 67.3241 26.8118C67.3241 36.2868 63.8268 41.7971 58.111 41.7971ZM58.111 9.67628C46.544 9.67628 41.2312 15.993 41.2312 26.8118C41.2312 37.6309 46.544 43.9474 58.111 43.9474C69.6104 43.9474 74.9234 37.6309 74.9234 26.8118C74.9234 15.993 69.6104 9.67628 58.111 9.67628Z" fill="white"/>
<path d="M133.103 10.3483H121.132V12.5659H125.504V32.4564C125.504 34.4054 125.1 35.1445 123.62 36.6899C120.392 40.1173 117.366 41.7298 114.474 41.7298C110.776 41.7298 108.826 39.1093 108.826 33.4644V10.3483H87.9791V0H85.7596C85.7596 5.17417 82.8007 10.3483 74.9999 10.3483V12.5659H80.38V36.4214C80.38 42.0658 82.8007 43.9474 89.9292 43.9474C92.2831 43.9474 93.8971 43.7458 95.847 43.141V40.9238C93.4936 41.5956 92.2831 41.7298 91.2744 41.7298C88.9878 41.7298 87.9791 40.5202 87.9791 37.8322V12.5659H101.227V32.4564C101.227 40.1844 104.723 43.9474 112.054 43.9474C118.375 43.9474 122.006 41.058 125.638 37.4966L126.647 43.2756H137.474V41.058H133.103V10.3483Z" fill="white"/>
<path d="M145.413 16.8667C145.413 14.0443 148.103 11.8938 152.608 11.8938C156.038 11.8938 159.872 13.1034 162.629 18.5465H164.848V10.3483H162.629L161.418 12.5659C158.997 10.4827 155.837 9.67628 152.474 9.67628C145.817 9.67628 140.235 12.9691 140.235 19.5544C140.235 32.2549 160.477 27.6182 160.477 35.7492C160.477 38.9748 157.383 41.7298 152.676 41.7298C149.179 41.7298 145.547 40.1844 142.185 33.8676H139.966V43.2756H142.185L143.597 40.1844C146.287 42.8051 149.246 43.9474 153.416 43.9474C161.149 43.9474 167 40.05 167 33.3302C167.067 20.3607 145.413 24.796 145.413 16.8667Z" fill="white"/>
</svg>
