<svg width="140" height="53" viewBox="0 0 140 53" fill="none" xmlns="http://www.w3.org/2000/svg">
<path d="M2.27916 51.4784H0.28918V37.2882H9.17377V39.0319H2.27916V43.4415H8.73154V45.1451H2.27916V51.4784Z" fill="white"/>
<path d="M13.5025 51.4784H11.5125V37.2882H13.5025V51.4784Z" fill="white"/>
<path d="M26.7986 48.6323H26.8388V37.2882H28.8288V51.4784H26.3162L18.7985 39.8937H18.7582V51.4784H16.7683V37.2882H19.3613L26.7986 48.6323Z" fill="white"/>
<path d="M56.5974 48.6323H56.6377V37.2882H58.6279V51.4784H56.1151L48.5975 39.8937H48.5572V51.4784H46.5671V37.2882H49.1601L56.5974 48.6323Z" fill="white"/>
<path d="M74.0944 49.2734C73.5314 50.0353 72.8013 50.6566 71.9036 51.1376C71.0055 51.605 69.927 51.8389 68.6671 51.8389C67.5818 51.8389 66.5768 51.6584 65.652 51.2978C64.7407 50.9236 63.9503 50.4091 63.28 49.7544C62.6237 49.0865 62.1074 48.2983 61.7324 47.3897C61.3574 46.4676 61.1694 45.459 61.1694 44.3631C61.1694 43.254 61.3574 42.2453 61.7324 41.3367C62.121 40.4147 62.6505 39.6331 63.3203 38.9917C64.0038 38.337 64.8077 37.8292 65.7326 37.4685C66.657 37.1077 67.662 36.9274 68.7477 36.9274C69.23 36.9274 69.7192 36.9741 70.2151 37.0676C70.7106 37.1612 71.1866 37.3015 71.6423 37.4885C72.0979 37.6756 72.5132 37.9094 72.8883 38.19C73.2637 38.4572 73.5853 38.7713 73.8534 39.132L72.2854 40.3346C71.9371 39.8535 71.4412 39.4594 70.798 39.1521C70.168 38.8314 69.4846 38.671 68.7477 38.671C67.9166 38.671 67.1665 38.8247 66.4962 39.132C65.8395 39.426 65.2769 39.8335 64.8077 40.3546C64.3389 40.8757 63.9771 41.4837 63.7225 42.1785C63.468 42.8599 63.3403 43.588 63.3403 44.3631C63.3403 45.1649 63.4612 45.9132 63.7022 46.6078C63.9567 47.3028 64.3122 47.9105 64.7679 48.4318C65.2366 48.9394 65.7996 49.3403 66.4559 49.6344C67.1262 49.9281 67.8699 50.0752 68.6874 50.0752C69.4914 50.0752 70.2215 49.915 70.8782 49.5942C71.5349 49.2734 72.0775 48.806 72.5064 48.1911L74.0944 49.2734Z" fill="white"/>
<path d="M77.9144 51.4784H75.9243V37.2882H77.9144V51.4784Z" fill="white"/>
<path d="M81.763 51.4784H79.5518L85.7224 37.2882H87.5318L93.6422 51.4784H91.3911L89.9436 47.9907H83.1901L81.763 51.4784ZM83.8935 46.2473H89.2203L86.5667 39.5931L83.8935 46.2473Z" fill="white"/>
<path d="M97.2596 49.7146H103.611V51.4784H95.2695V37.2882H97.2596V49.7146Z" fill="white"/>
<path d="M112.411 39.9137C112.129 39.5262 111.747 39.2122 111.265 38.9717C110.782 38.7178 110.24 38.5909 109.637 38.5909C109.315 38.5909 108.987 38.6376 108.652 38.7312C108.33 38.8113 108.035 38.9517 107.767 39.1521C107.499 39.3391 107.278 39.5797 107.104 39.8736C106.943 40.1542 106.863 40.4949 106.863 40.8958C106.863 41.2832 106.937 41.6106 107.084 41.8778C107.245 42.1317 107.453 42.3522 107.707 42.5391C107.975 42.7129 108.283 42.8667 108.632 43.0002C108.993 43.1206 109.375 43.2473 109.777 43.3812C110.26 43.5278 110.749 43.6952 111.245 43.8821C111.741 44.069 112.19 44.3165 112.591 44.6237C112.994 44.9309 113.322 45.3183 113.576 45.7861C113.831 46.2404 113.958 46.8218 113.958 47.53C113.958 48.2648 113.818 48.906 113.536 49.4539C113.268 49.9883 112.907 50.4358 112.451 50.7969C111.995 51.1439 111.466 51.4046 110.863 51.5783C110.273 51.752 109.664 51.8389 109.034 51.8389C108.136 51.8389 107.265 51.6652 106.42 51.3177C105.59 50.9706 104.899 50.4561 104.35 49.7747L105.898 48.472C106.233 48.9661 106.682 49.367 107.245 49.6743C107.808 49.9815 108.417 50.1353 109.074 50.1353C109.409 50.1353 109.744 50.0887 110.079 49.9951C110.414 49.9014 110.715 49.7544 110.983 49.5539C111.265 49.3535 111.493 49.1064 111.667 48.8127C111.841 48.5051 111.928 48.1377 111.928 47.7101C111.928 47.2825 111.835 46.9286 111.647 46.6481C111.473 46.354 111.231 46.1069 110.923 45.9065C110.615 45.706 110.253 45.5391 109.838 45.4051C109.436 45.2585 109.007 45.1115 108.551 44.9644C108.096 44.8309 107.647 44.6703 107.204 44.4834C106.762 44.283 106.367 44.0359 106.019 43.7418C105.67 43.4346 105.389 43.0604 105.174 42.6192C104.96 42.1785 104.853 41.6306 104.853 40.9759C104.853 40.2677 104.993 39.6598 105.275 39.1521C105.57 38.6443 105.945 38.2234 106.4 37.8894C106.87 37.5554 107.392 37.3148 107.968 37.1679C108.558 37.0075 109.147 36.9274 109.737 36.9274C110.568 36.9274 111.345 37.0743 112.069 37.3683C112.792 37.6622 113.375 38.0564 113.818 38.5508L112.411 39.9137Z" fill="white"/>
<path d="M86.7838 2.38043H104.939V6.25961H86.7838V2.38043Z" fill="white"/>
<path d="M87.1078 13.6945H103.967V17.5737H87.1078V13.6945Z" fill="white"/>
<path d="M113.369 28.2415C113.369 29.3127 112.498 30.1811 111.424 30.1811C110.349 30.1811 109.478 29.3127 109.478 28.2415C109.478 27.1703 110.349 26.3019 111.424 26.3019C112.498 26.3019 113.369 27.1703 113.369 28.2415Z" fill="white"/>
<path d="M86.7838 26.3019H105.264V30.1811H86.7838V26.3019Z" fill="white"/>
<path fill-rule="evenodd" clip-rule="evenodd" d="M0 2.39336H9.45387C11.2176 2.39336 12.9813 2.65197 14.7449 3.1692C16.5086 3.68642 18.1037 4.50106 19.5302 5.6131C20.9568 6.72513 22.1109 8.14749 22.9928 9.88019C23.8746 11.6129 24.3155 13.6947 24.3155 16.1257C24.3155 18.479 23.8746 20.5221 22.9928 22.2548C22.1109 23.9617 20.9568 25.384 19.5302 26.5219C18.1037 27.6339 16.5086 28.4745 14.7449 29.0434C12.9813 29.5865 11.2176 29.858 9.45387 29.858H0V26.4637H3.85158V26.4831H8.67577C10.3357 26.4831 11.866 26.2504 13.2666 25.7849C14.6931 25.3194 15.9121 24.647 16.9236 23.7677C17.9611 22.8884 18.7651 21.8022 19.3357 20.5092C19.9063 19.2161 20.1916 17.7549 20.1916 16.1257C20.1916 14.4188 19.9063 12.9189 19.3357 11.6258C18.7651 10.3328 17.9611 9.25953 16.9236 8.40612C15.9121 7.52683 14.6931 6.86735 13.2666 6.42772C11.866 5.9622 10.3357 5.72946 8.67577 5.72946H3.85158V5.74239H0V2.39336ZM55.4292 16.0869C55.4292 18.2075 55.0534 20.16 54.3012 21.9445C53.5749 23.703 52.5635 25.2288 51.2666 26.5219C49.9697 27.7891 48.4267 28.7848 46.6368 29.5089C44.8474 30.2072 42.9018 30.5563 40.8011 30.5563C38.7003 30.5563 36.7551 30.2072 34.9654 29.5089C33.2017 28.7848 31.6715 27.7891 30.3746 26.5219C29.0778 25.2288 28.0663 23.703 27.3401 21.9445C26.6138 20.16 26.2507 18.2075 26.2507 16.0869C26.2507 13.9404 26.6138 11.9879 27.3401 10.2293C28.0663 8.4449 29.0778 6.93202 30.3746 5.69069C31.6715 4.42347 33.2017 3.44074 34.9654 2.74249C36.7551 2.04423 38.7003 1.69511 40.8011 1.69511C42.9018 1.69511 44.8474 2.04423 46.6368 2.74249C48.4267 3.44074 49.9697 4.42347 51.2666 5.69069C52.5635 6.93202 53.5749 8.4449 54.3012 10.2293C55.0534 11.9879 55.4292 13.9404 55.4292 16.0869ZM51.2666 16.0869C51.2666 14.587 51.0201 13.1775 50.5275 11.8586C50.0346 10.5138 49.3342 9.33712 48.4267 8.32853C47.5188 7.31994 46.4162 6.53117 45.1197 5.9622C43.8487 5.36739 42.4092 5.06998 40.8011 5.06998C39.219 5.06998 37.7795 5.36739 36.4827 5.9622C35.2118 6.53117 34.1225 7.31994 33.2147 8.32853C32.3329 9.33712 31.6455 10.5138 31.1528 11.8586C30.66 13.1775 30.4136 14.587 30.4136 16.0869C30.4136 17.6127 30.66 19.048 31.1528 20.3928C31.6455 21.7376 32.3458 22.9143 33.2536 23.9228C34.1614 24.9056 35.2507 25.6814 36.5216 26.2504C37.7925 26.8193 39.219 27.1038 40.8011 27.1038C42.3833 27.1038 43.8228 26.8193 45.1197 26.2504C46.4162 25.6814 47.5188 24.9056 48.4267 23.9228C49.3342 22.9143 50.0346 21.7376 50.5275 20.3928C51.0201 19.048 51.2666 17.6127 51.2666 16.0869ZM78.1355 24.3496H78.2135V2.39336H82.0648V29.858H77.2017L62.6515 7.43631H62.5734V29.858H58.7222V2.39336H63.7405L78.1355 24.3496ZM113.09 21.8281H109.238V2.39336H113.09V21.8281Z" fill="white"/>
<path fill-rule="evenodd" clip-rule="evenodd" d="M44.4742 36.9919V51.3164H29.3099L44.4742 36.9919ZM33.3781 49.7001H42.8532V40.7497L33.3781 49.7001Z" fill="white"/>
<path d="M130.012 31.0888C130.416 31.0889 130.725 31.2213 130.938 31.4857C131.144 31.7428 131.247 32.1176 131.247 32.6097V33.6344H128.898V32.6097C128.898 32.1175 128.982 31.7428 129.152 31.4857C129.313 31.2213 129.6 31.0888 130.012 31.0888Z" fill="white"/>
<path d="M131.446 23.7311C132.254 23.7311 132.902 23.9002 133.387 24.2381C133.865 24.5759 134.104 25.0275 134.104 25.593C134.104 26.1586 133.865 26.6104 133.387 26.9483C132.902 27.2862 132.254 27.4553 131.446 27.4553C130.637 27.4553 130.004 27.2862 129.548 26.9483C129.085 26.6105 128.854 26.1586 128.854 25.593C128.854 25.0275 129.085 24.5759 129.548 24.2381C130.004 23.9002 130.637 23.7311 131.446 23.7311Z" fill="white"/>
<path d="M130.1 9.94634C130.975 9.94642 131.413 10.4751 131.413 11.5326V12.4696H128.898V11.5769C128.898 11.0407 128.986 10.6365 129.162 10.3647C129.331 10.0856 129.644 9.94634 130.1 9.94634Z" fill="white"/>
<path fill-rule="evenodd" clip-rule="evenodd" d="M131.604 0C136.241 7.68817e-05 140 3.75528 140 8.38739V43.9491C140 48.5812 136.241 52.3364 131.604 52.3364C126.967 52.3364 123.207 48.5812 123.207 43.9491V8.38739C123.207 3.75523 126.967 0 131.604 0ZM131.181 36.509V39.0214H132.229V37.6549H133.784C133.887 37.7725 133.968 37.9232 134.027 38.1068C134.078 38.2905 134.104 38.4851 134.104 38.6908C134.104 39.4106 133.873 39.9579 133.409 40.3325C132.938 40.7071 132.291 40.8945 131.468 40.8945C130.659 40.8945 130.023 40.6998 129.56 40.3105C129.089 39.9139 128.854 39.396 128.854 38.757C128.854 38.4191 128.916 38.1397 129.041 37.9193C129.159 37.6917 129.306 37.4859 129.483 37.3023L128.655 36.6195C128.42 36.8472 128.21 37.141 128.026 37.5009C127.835 37.8535 127.74 38.2868 127.74 38.8008C127.74 39.4399 127.89 40.0165 128.192 40.5307C128.486 41.0449 128.916 41.4529 129.483 41.754C130.041 42.0551 130.714 42.2055 131.501 42.2055C132.295 42.2055 132.972 42.0586 133.531 41.7648C134.082 41.471 134.501 41.0672 134.788 40.5531C135.075 40.0389 135.218 39.4584 135.218 38.812C135.218 38.3199 135.137 37.8753 134.975 37.4786C134.806 37.0747 134.6 36.7513 134.358 36.509H131.181ZM132.074 31.2651C131.927 30.8318 131.685 30.4867 131.347 30.2297C131.008 29.9653 130.564 29.8329 130.012 29.8328C129.475 29.8328 129.052 29.9504 128.744 30.1854C128.427 30.4131 128.203 30.7291 128.071 31.1331C127.938 31.5298 127.872 31.9778 127.872 32.4773V34.9123H135.086V33.6344H132.262V32.5323L135.086 30.9788V29.5464L132.074 31.2651ZM131.446 22.4089C130.666 22.4089 130.001 22.5448 129.449 22.8165C128.898 23.0809 128.475 23.4519 128.181 23.9293C127.887 24.4068 127.74 24.9614 127.74 25.593C127.74 26.2174 127.886 26.7684 128.181 27.2459C128.475 27.7233 128.898 28.0981 129.449 28.3699C130.001 28.6343 130.666 28.7663 131.446 28.7663C132.225 28.7663 132.898 28.6343 133.464 28.3699C134.023 28.0981 134.457 27.7233 134.766 27.2459C135.067 26.7684 135.218 26.2174 135.218 25.593C135.218 24.9614 135.067 24.4068 134.766 23.9293C134.457 23.452 134.023 23.0809 133.464 22.8165C132.898 22.5447 132.225 22.4089 131.446 22.4089ZM127.872 15.5465V16.7694H132.019C132.541 16.7694 132.957 16.8354 133.266 16.9676C133.567 17.0925 133.784 17.2689 133.916 17.4965C134.041 17.7169 134.104 17.9741 134.104 18.2679C134.104 18.5544 134.041 18.8078 133.916 19.0282C133.784 19.2485 133.567 19.421 133.266 19.5459C132.957 19.6634 132.541 19.7222 132.019 19.7222H127.872V21.0005H131.92C132.706 21.0005 133.343 20.8902 133.828 20.6699C134.313 20.4422 134.667 20.1227 134.887 19.7114C135.108 19.3001 135.218 18.8188 135.218 18.2679C135.218 17.7097 135.108 17.2284 134.887 16.8244C134.667 16.4132 134.313 16.0975 133.828 15.8772C133.343 15.6568 132.706 15.5465 131.92 15.5465H127.872ZM130.1 8.69032C129.541 8.69032 129.1 8.81133 128.777 9.05368C128.453 9.29607 128.221 9.62658 128.081 10.0453C127.941 10.4639 127.872 10.9414 127.872 11.4776V13.7475H135.086V12.4696H132.439V11.4337C132.439 10.9122 132.354 10.4458 132.185 10.0345C132.015 9.62315 131.758 9.29608 131.413 9.05368C131.067 8.81131 130.63 8.69035 130.1 8.69032Z" fill="white"/>
</svg>
