<svg width="216" height="35" viewBox="0 0 216 35" fill="none" xmlns="http://www.w3.org/2000/svg">
<path d="M59.2286 29.7406C62.5283 29.7406 64.5651 28.5607 66.2353 26.6486L63.4245 24.2075C62.4876 25.2652 61.2655 26.1196 59.2286 26.1196C56.1735 26.1196 54.3402 23.882 54.3402 20.8307C54.3402 17.7793 56.1735 15.5417 59.2286 15.5417C60.9804 15.5417 62.4061 16.3553 63.2208 17.5352L66.1539 15.1755C64.5244 13.1413 62.4469 11.9207 59.2286 11.9207C54.0144 11.9207 50.1037 15.7451 50.1037 20.8307C50.1037 25.9569 54.0144 29.7406 59.2286 29.7406Z" fill="white"/>
<path d="M78.326 29.7406C83.5402 29.7406 87.5324 25.9163 87.5324 20.8307C87.5324 15.7451 83.5402 11.9207 78.326 11.9207C73.1525 11.9207 69.0788 15.7451 69.0788 20.8307C69.0788 25.9163 73.1525 29.7406 78.326 29.7406ZM78.326 26.201C75.2707 26.201 73.3155 23.9634 73.3155 20.8307C73.3155 17.698 75.2707 15.501 78.326 15.501C81.3812 15.501 83.2958 17.698 83.2958 20.8307C83.2958 23.9634 81.3812 26.201 78.326 26.201Z" fill="white"/>
<path d="M101.915 29.7404C106.355 29.7404 109.941 25.9567 109.941 20.7897C109.941 15.6228 106.437 11.9205 101.997 11.9205C99.105 11.9205 97.1899 13.3038 96.0493 15.2567V0H91.8942V29.3742H96.0493L95.9271 26.2822C96.9864 28.3571 99.0635 29.7404 101.915 29.7404ZM100.856 26.1194C97.8417 26.1194 95.8863 24.0039 95.8863 20.7897C95.8863 17.6977 97.8417 15.5822 100.856 15.5822C103.83 15.5822 105.704 17.6977 105.704 20.7897C105.704 24.0039 103.83 26.1194 100.856 26.1194Z" fill="white"/>
<path d="M122.722 29.7406C127.937 29.7406 131.93 25.9163 131.93 20.8307C131.93 15.7451 127.937 11.9207 122.722 11.9207C117.549 11.9207 113.476 15.7451 113.476 20.8307C113.476 25.9163 117.549 29.7406 122.722 29.7406ZM122.722 26.201C119.668 26.201 117.712 23.9634 117.712 20.8307C117.712 17.698 119.668 15.501 122.722 15.501C125.778 15.501 127.692 17.698 127.692 20.8307C127.692 23.9634 125.778 26.201 122.722 26.201Z" fill="white"/>
<path d="M141.234 29.7809H141.682L146.081 21.4813C146.652 20.3829 147.141 18.5927 147.141 18.5927C147.141 18.5927 147.548 20.3829 148.118 21.4813L152.355 29.7809H152.803L160.299 12.2866H156.184L153.373 19.6098C152.884 20.871 152.355 22.8239 152.355 22.8239C152.355 22.8239 151.744 20.8304 151.132 19.6098L147.344 11.9612H146.937L143.27 19.2844C142.618 20.5455 142.089 22.4984 142.089 22.4984C142.089 22.4984 141.56 20.5863 141.071 19.2844L138.342 12.2866H133.779L141.234 29.7809Z" fill="white"/>
<path d="M171.377 29.7406C176.591 29.7406 180.583 25.9163 180.583 20.8307C180.583 15.7451 176.591 11.9207 171.377 11.9207C166.204 11.9207 162.129 15.7451 162.129 20.8307C162.129 25.9163 166.204 29.7406 171.377 29.7406ZM171.377 26.201C168.322 26.201 166.366 23.9634 166.366 20.8307C166.366 17.698 168.322 15.501 171.377 15.501C174.432 15.501 176.347 17.698 176.347 20.8307C176.347 23.9634 174.432 26.201 171.377 26.201Z" fill="white"/>
<path d="M184.945 29.3741H189.059V21.0744C189.059 17.2501 190.73 15.8261 193.174 15.8261C194.11 15.8261 194.762 16.0703 195.414 16.3958L196.799 12.6935C196.066 12.2459 195.211 11.9612 193.988 11.9612C192.114 11.9612 190.159 12.8155 189.019 15.5007L189.059 12.2866H184.945V29.3741Z" fill="white"/>
<path d="M197.914 29.3741H202.435L205.572 25.1023C206.224 24.2072 206.794 22.7426 206.794 22.7426C206.794 22.7426 207.405 24.2072 208.057 25.1023L211.112 29.3741H216L209.319 20.0573L215.023 12.2866H210.501L208.057 15.5821C207.446 16.4364 207.039 17.6976 207.039 17.6976C207.039 17.6976 206.55 16.3958 205.979 15.5821L203.657 12.2866H198.769L204.594 20.3829L197.914 29.3741Z" fill="white"/>
<path fill-rule="evenodd" clip-rule="evenodd" d="M8.72327 18.6316C11.5302 18.6316 13.8055 16.3497 13.8055 13.5349C13.8055 10.72 11.5302 8.43806 8.72327 8.43806C5.91642 8.43806 3.64102 10.72 3.64102 13.5349C3.64102 16.3497 5.91642 18.6316 8.72327 18.6316ZM8.72327 22.2831C13.541 22.2831 17.4466 18.3664 17.4466 13.5349C17.4466 8.70334 13.541 4.78663 8.72327 4.78663C3.90554 4.78663 0 8.70334 0 13.5349C0 18.3664 3.90554 22.2831 8.72327 22.2831Z" fill="white"/>
<path fill-rule="evenodd" clip-rule="evenodd" d="M28.2936 30.4987C31.1004 30.4987 33.3758 28.2169 33.3758 25.4019C33.3758 22.5871 31.1004 20.3052 28.2936 20.3052C25.4867 20.3052 23.2113 22.5871 23.2113 25.4019C23.2113 28.2169 25.4867 30.4987 28.2936 30.4987ZM28.2936 34.1502C33.1113 34.1502 37.0168 30.2334 37.0168 25.4019C37.0168 20.5704 33.1113 16.6537 28.2936 16.6537C23.4758 16.6537 19.5703 20.5704 19.5703 25.4019C19.5703 30.2334 23.4758 34.1502 28.2936 34.1502Z" fill="white"/>
<path fill-rule="evenodd" clip-rule="evenodd" d="M23.2113 5.85174C23.2113 8.60563 25.4677 10.8724 28.2936 10.8724C31.1194 10.8724 33.3758 8.60563 33.3758 5.85174H37.0168C37.0168 10.6602 33.0923 14.5239 28.2936 14.5239C23.4948 14.5239 19.5703 10.6602 19.5703 5.85174H23.2113Z" fill="white"/>
<path fill-rule="evenodd" clip-rule="evenodd" d="M13.8074 33.0849C13.8074 30.331 11.551 28.0642 8.72516 28.0642C5.89929 28.0642 3.6429 30.331 3.6429 33.0849H0.00188339C0.00188381 28.2764 3.92645 24.4128 8.72516 24.4128C13.5239 24.4128 17.4485 28.2764 17.4485 33.0849H13.8074Z" fill="white"/>
</svg>
