<svg width="109" height="68" viewBox="0 0 109 68" fill="none" xmlns="http://www.w3.org/2000/svg">
<path d="M9.0441 57.749C8.25923 57.1016 7.28116 56.646 5.965 56.646C3.63455 56.646 1.75086 58.6243 1.75086 61.0581C1.75086 63.48 3.62247 65.4583 6.1099 65.4583C7.25701 65.4583 8.33168 65.0747 9.06825 64.3913L10.1429 65.5902C9.06825 66.6453 7.74001 67.0769 6.00123 67.0769C2.60818 67.0769 0 64.3793 0 61.0701C0 57.737 2.65648 55.0394 5.965 55.0394C7.82454 55.0394 9.11655 55.5669 10.1429 56.4901L9.0441 57.749Z" fill="white"/>
<path d="M23.5699 61.0701C23.5699 64.3792 20.8772 67.0649 17.5687 67.0649C14.2602 67.0649 11.5916 64.3672 11.5916 61.0581C11.5916 57.725 14.2723 55.0273 17.5687 55.0273C20.8651 55.0273 23.5699 57.749 23.5699 61.0701ZM21.8191 61.0701C21.8191 58.6242 19.9233 56.6339 17.5687 56.6339C15.2382 56.6339 13.3425 58.6122 13.3425 61.0461C13.3425 63.468 15.2382 65.4463 17.5687 65.4463C19.9233 65.4463 21.8191 63.48 21.8191 61.0701Z" fill="white"/>
<path d="M27.8324 57.9049V66.8491H26.1782V55.2432H27.9653L34.4374 64.2354V55.2432H36.0796V66.8491H34.2925L27.8324 57.9049Z" fill="white"/>
<path d="M55.2787 55.2432L51.5234 66.8491H49.4827L46.7296 57.2934L43.9524 66.8491H41.9842L38.2289 55.2432H40.0522L42.9864 64.8588L45.7516 55.2432H47.8164L50.6057 64.8708L53.5399 55.2432H55.2787Z" fill="white"/>
<path d="M57.4889 55.2432H64.9028V56.7778H59.131V60.2548H64.1784V61.7895H59.131V65.3024H64.9028V66.8371H57.4889V55.2432Z" fill="white"/>
<path d="M75.1297 63.8757H69.5511L68.3436 66.8491H66.6169L71.4227 55.2432H73.3547L78.1605 66.8491H76.3251L75.1297 63.8757ZM72.3404 56.9817L70.1548 62.4129H74.5501L72.3404 56.9817Z" fill="white"/>
<path d="M83.2682 65.0387L86.9148 55.2432H88.6294L84.1859 66.8491H82.2539L77.8103 55.2432H79.6336L83.2682 65.0387Z" fill="white"/>
<path d="M90.5018 55.2432H97.9157V56.7778H92.1439V60.2548H97.1912V61.7895H92.1439V65.3024H97.9157V66.8371H90.5018V55.2432Z" fill="white"/>
<path d="M100.451 55.2432H104.532C107.104 55.2432 108.795 56.622 108.795 58.7321C108.795 60.3747 107.756 61.5857 106.078 62.0413L109 66.8371H107.104L104.375 62.2451H102.093V66.8371H100.451V55.2432ZM102.093 56.7059V60.7824H104.677C106.114 60.7824 107.08 59.9671 107.08 58.7321C107.08 57.4972 106.114 56.7059 104.677 56.7059H102.093Z" fill="white"/>
<path d="M91.0344 15.6399L86.8169 13.871L86.7686 13.847L86.7444 13.9071C84.0496 20.0561 77.7173 23.8947 70.9862 23.4615C69.2823 23.3532 67.6147 22.9801 66.0316 22.3424C64.376 21.6806 62.8534 20.754 61.512 19.5868L61.4033 19.4785L61.4153 19.6229C61.4637 20.3208 61.4637 21.0187 61.4153 21.7167C61.3428 22.7876 61.1616 23.8586 60.8836 24.8814C58.8897 32.1735 51.9411 37.1191 44.352 36.6258C35.5183 36.0482 28.8114 28.4312 29.3794 19.6349C29.9594 10.8387 37.6089 4.16025 46.4427 4.72581C48.1466 4.83411 49.8142 5.21917 51.3973 5.8449L51.4698 5.86896L51.494 5.8088L53.1616 1.56108C53.1737 1.54905 53.1858 1.51295 53.1858 1.51295C53.1858 1.51295 53.1495 1.50092 53.1375 1.48888C52.8595 1.38059 52.5937 1.28432 52.3399 1.18806C50.5514 0.550297 48.6662 0.177268 46.7569 0.0449033C35.337 -0.701154 25.4519 7.93867 24.7027 19.31C23.9534 30.6814 32.6301 40.5245 44.0499 41.2706C48.775 41.5714 53.3187 40.332 57.1978 37.6486C60.944 35.0615 63.7718 31.271 65.1494 26.9752C66.9259 27.5889 68.7869 27.9739 70.6721 28.0942C79.397 28.6598 87.5903 23.6781 91.0706 15.688L91.0948 15.6399H91.0344Z" fill="white"/>
</svg>
