<svg width="196" height="38" viewBox="0 0 196 38" fill="none" xmlns="http://www.w3.org/2000/svg">
<path d="M68.0847 11.6303C68.1871 11.5035 68.3415 11.4298 68.5045 11.4298H74.1285C74.5963 11.4298 74.8428 11.9846 74.5296 12.3324L67.1684 20.5046C66.9839 20.7095 66.9831 21.0206 67.1665 21.2265L75.3743 30.4362C75.6849 30.7845 75.4378 31.3367 74.9713 31.3367H69.2094C69.0818 31.3367 64.7145 26.2467 62.7424 23.9407C62.416 23.5591 61.7928 23.7926 61.7928 24.2951V30.7869C61.7928 31.0855 61.551 31.3275 61.2528 31.3275H56.7313C56.4331 31.3275 56.1913 31.0855 56.1913 30.7869V6.16994C56.1913 5.8714 56.4331 5.62937 56.7313 5.62937H61.2528C61.551 5.62937 61.7928 5.8714 61.7928 6.16994V17.8872C61.7928 18.3966 62.4323 18.6232 62.7525 18.2273L68.0847 11.6303Z" fill="white"/>
<path d="M75.7013 21.3331C75.7013 15.5419 80.3859 10.8428 86.1616 10.8428C91.9373 10.8428 96.6219 15.5419 96.6219 21.3331C96.6219 27.1243 91.9373 31.8235 86.1616 31.8235C80.3859 31.8235 75.7013 27.1336 75.7013 21.3331ZM81.2018 21.3424C81.2018 24.2333 83.4205 26.5736 86.1616 26.5736C88.9027 26.5736 91.1213 24.2333 91.1213 21.3424C91.1213 18.4512 88.9027 16.1109 86.1616 16.1109C83.4205 16.1109 81.2018 18.4512 81.2018 21.3424Z" fill="white"/>
<path d="M134.73 21.3331C134.73 15.5419 139.415 10.8428 145.191 10.8428C150.966 10.8428 155.651 15.5419 155.651 21.3331C155.651 27.1243 150.966 31.8235 145.191 31.8235C139.415 31.8235 134.73 27.1336 134.73 21.3331ZM140.231 21.3424C140.231 24.2517 142.45 26.6104 145.191 26.6104C147.932 26.6104 150.15 24.2517 150.15 21.3424C150.15 18.4328 147.932 16.0742 145.191 16.0742C142.45 16.0742 140.231 18.4328 140.231 21.3424Z" fill="white"/>
<path d="M169.082 10.8428C163.307 10.8428 158.622 15.5419 158.622 21.3331C158.622 27.1336 163.307 31.8235 169.082 31.8235C174.857 31.8235 179.542 27.1243 179.542 21.3331C179.542 15.5419 174.857 10.8428 169.082 10.8428ZM169.082 26.6104C166.341 26.6104 164.122 24.2517 164.122 21.3424C164.122 18.4328 166.341 16.0742 169.082 16.0742C171.823 16.0742 174.041 18.4328 174.041 21.3424C174.041 24.2517 171.813 26.6104 169.082 26.6104Z" fill="white"/>
<path d="M195.094 27.3596C195.025 27.0867 194.758 26.9162 194.477 26.9409C192.682 27.0995 191.64 26.3485 191.186 25.8763C190.671 25.3439 190.296 24.4813 190.296 23.9213V16.6883C190.296 16.3898 190.537 16.1477 190.836 16.1477H194.981C195.279 16.1477 195.521 15.9058 195.521 15.6071V11.9984C195.521 11.6998 195.279 11.4578 194.981 11.4578H190.836C190.537 11.4578 190.296 11.2158 190.296 10.9172V6.58343C190.296 6.28488 190.054 6.04286 189.756 6.04286H185.298C185.001 6.04286 184.758 6.28488 184.758 6.58343V10.9172C184.758 11.2158 184.516 11.4578 184.219 11.4578H181.513C181.213 11.4578 180.973 11.6998 180.973 11.9984V15.6071C180.973 15.9058 181.213 16.1477 181.513 16.1477H184.219C184.516 16.1477 184.758 16.3898 184.758 16.6883V23.9122C184.758 28.2718 188.297 31.8143 192.652 31.8143C192.652 31.8143 194.293 31.8739 195.657 31.4574C195.915 31.3788 196.049 31.1067 195.984 30.8461L195.094 27.3596Z" fill="white"/>
<path d="M105.837 21.0117C105.819 23.5173 105.837 31.3002 105.837 31.3002C105.837 31.3053 105.833 31.3093 105.828 31.3093H100.803C100.505 31.3093 100.263 31.0674 100.263 30.7687V12.0165C100.263 11.7179 100.505 11.4759 100.803 11.4759H104.501C104.743 11.4759 104.956 11.6377 105.021 11.8716L105.266 12.7547C105.391 13.2045 106.003 13.3025 106.314 12.9542C107.165 12 108.214 11.3899 109.614 11.1364C111.649 10.7692 113.409 10.9987 114.986 11.8247C115.974 12.3462 116.76 13.1584 117.326 14.244C117.34 14.2719 117.382 14.2724 117.404 14.2497L117.408 14.2453C117.637 13.9342 117.865 13.6228 118.112 13.3299C119.093 12.1735 120.377 11.4484 121.926 11.1547C123.466 10.8702 124.942 10.9253 126.326 11.3383C127.912 11.8063 129.132 12.7975 129.939 14.2751C130.544 15.3765 130.892 16.634 131.011 18.1024C131.066 18.8182 131.094 19.4606 131.094 20.0847V30.778C131.094 31.0765 130.852 31.3186 130.554 31.3186H126.088C125.79 31.3186 125.548 31.0786 125.548 30.7796C125.552 28.8441 125.563 22.2308 125.547 19.8369C125.538 18.9743 125.336 18.2034 124.97 17.5426C124.585 16.8634 124.044 16.4503 123.301 16.2668C122.384 16.0373 121.614 16.074 120.808 16.3861C119.772 16.7808 119.075 17.5793 118.672 18.8182C118.461 19.4606 118.36 20.1857 118.36 21.0117V30.7596C118.36 31.0581 118.118 31.3002 117.82 31.3002H113.482C113.183 31.3002 112.942 31.0581 112.942 30.7596V19.993C112.942 19.3138 112.905 18.5153 112.593 17.7811C112.162 16.7441 111.383 16.2025 110.201 16.1291C109.311 16.074 108.56 16.2025 107.899 16.5146C106.845 17.0193 106.35 17.8912 106.057 19.1303C105.919 19.7268 105.837 20.3602 105.837 21.0117Z" fill="white"/>
<path d="M7.4539 31.5207C6.99329 31.9818 6.99073 32.7329 7.4822 33.1608C8.86322 34.3636 10.4315 35.3363 12.1273 36.0397C14.1869 36.8938 16.3944 37.3333 18.6238 37.3333C20.853 37.3333 23.0605 36.8938 25.1201 36.0397C26.816 35.3363 28.3842 34.3636 29.7652 33.1608C30.2567 32.7329 30.2542 31.9818 29.7936 31.5207L20.2917 22.0082C19.3704 21.0859 17.877 21.0859 16.9557 22.0082L7.4539 31.5207Z" fill="white"/>
<path d="M18.5819 2.00188e-06C22.0362 0.00158454 25.4218 0.961561 28.3583 2.7721C31.2946 4.58262 33.666 7.17189 35.2054 10.2492C36.7449 13.3265 37.392 16.77 37.0737 20.1927C36.7969 23.169 35.7997 26.0272 34.176 28.5259C33.7879 29.1233 32.9543 29.1813 32.4478 28.6808L24.8017 21.1254C24.464 20.7915 24.3697 20.2902 24.4869 19.8299C24.6021 19.3779 24.6665 18.9055 24.6732 18.4187C24.7192 15.069 22.0276 12.316 18.6616 12.2697C15.2956 12.2235 12.5296 14.9015 12.4837 18.2511C12.4761 18.8056 12.5435 19.3437 12.6766 19.8558C12.7971 20.3196 12.7024 20.8266 12.3603 21.1621L4.69923 28.6739C4.19177 29.1716 3.3605 29.1116 2.97342 28.5155C1.34974 26.0142 0.353197 23.1537 0.0780254 20.1757C-0.238252 16.7527 0.411029 13.3099 1.95244 10.2339C3.49386 7.15805 5.86646 4.57082 8.80401 2.76301C11.7416 0.955181 15.1278 -0.00159737 18.5819 2.00188e-06Z" fill="white"/>
</svg>
