<svg width="155" height="48" viewBox="0 0 155 48" fill="none" xmlns="http://www.w3.org/2000/svg">
<path d="M28.223 30.1869H9.6041L6.9989 36.1875H0L15.807 1.48479H22.0098L37.8168 36.1772H30.8076L28.2024 30.1767L28.223 30.1869ZM25.7729 24.5857L18.9704 8.87792H18.867L12.0646 24.5857H25.7729Z" fill="white"/>
<path d="M43.1311 34.4467L30.9219 9.91207H37.8277L46.4393 27.9545H46.5427L55.1027 9.91207H62.0602L43.5446 47.3282H36.6388L43.1415 34.4467H43.1311Z" fill="white"/>
<path d="M69.8552 33.4023V36.1772H64.0039V0H70.2068V12.3902H70.3102C72.4605 10.3627 75.717 9.16462 79.4697 9.16462C87.5231 9.16462 93.5296 15.1651 93.5296 23.0396C93.5296 30.914 87.5748 36.9144 79.2216 36.9144C75.2725 36.9144 72.0159 35.6242 69.969 33.392H69.8656L69.8552 33.4023ZM78.653 14.5713C74.0525 14.5713 70.1965 17.5407 70.1965 21.2578V24.7291C70.1965 28.4462 73.9491 31.5181 78.6014 31.5181C83.8531 31.5181 87.306 28.2004 87.306 23.0396C87.306 17.8787 83.8531 14.561 78.653 14.561V14.5713Z" fill="white"/>
<path d="M136.132 9.73779C144.155 7.24952 151.277 11.2942 153.656 18.8205L154.203 20.551L133.218 27.0635C134.634 30.883 138.593 32.4292 143.162 31.0058C146.511 29.9716 148.579 27.8315 149.996 24.2681L155 26.5105C153.294 31.098 149.872 34.2006 144.733 35.7981C136.288 38.4194 129.34 34.9379 126.859 27.084C124.419 19.3734 128.348 12.1544 136.132 9.73779ZM147.122 18.1242C145.685 14.7246 141.849 13.2501 137.745 14.5198C133.641 15.7895 131.253 19.1994 131.977 22.8242L147.112 18.1242H147.122Z" fill="white"/>
<path d="M107.838 9.3076C116.253 8.07883 122.735 13.2397 123.914 21.1346L124.182 22.947L102.152 26.1623C102.958 30.207 106.67 32.3676 111.466 31.6713C114.981 31.1594 117.39 29.3571 119.375 26.0087L124.027 29.0397C121.587 33.3507 117.669 35.9311 112.273 36.7195C103.413 38.0098 97.0138 33.4326 95.7938 25.1998C94.5947 17.1104 99.6809 10.5057 107.848 9.3076H107.838ZM117.483 19.4246C116.594 15.7996 112.996 13.721 108.685 14.3456C104.374 14.9702 101.438 18.0114 101.594 21.7489L117.483 19.4246Z" fill="white"/>
</svg>
