<svg width="162" height="46" viewBox="0 0 162 46" fill="none" xmlns="http://www.w3.org/2000/svg">
<path fill-rule="evenodd" clip-rule="evenodd" d="M98.8216 44.4821H93.9616V23.8365C93.9488 22.6263 93.4502 21.4707 92.5753 20.6233C91.7005 19.7761 90.521 19.3066 89.296 19.3179H80.0295C78.804 19.3066 77.6239 19.7759 76.7483 20.623C75.8725 21.4701 75.3727 22.6258 75.3586 23.8365V44.4821H70.4985V23.8365C70.5129 21.3529 71.5248 18.9765 73.3121 17.2298C75.0994 15.4833 77.5156 14.5092 80.0295 14.522H89.2906C91.8045 14.5092 94.2208 15.4833 96.0081 17.2298C97.7952 18.9765 98.8073 21.3529 98.8216 23.8365V44.4821Z" fill="white"/>
<path fill-rule="evenodd" clip-rule="evenodd" d="M117.408 40.4866C115.959 40.4811 114.525 40.1917 113.19 39.6354C111.855 39.0789 110.644 38.2665 109.629 37.245C108.614 36.2236 107.813 35.0133 107.274 33.6843C106.735 32.3553 106.469 30.9339 106.489 29.5023C106.457 28.068 106.715 26.6418 107.248 25.3074C107.781 23.9729 108.579 22.7573 109.594 21.7316C110.61 20.706 111.822 19.891 113.161 19.3347C114.499 18.7783 115.937 18.4917 117.389 18.4917C118.841 18.4917 120.279 18.7783 121.617 19.3347C122.956 19.891 124.168 20.706 125.184 21.7316C126.199 22.7573 126.997 23.9729 127.53 25.3074C128.063 26.6418 128.321 28.068 128.289 29.5023C128.313 30.9316 128.05 32.3516 127.515 33.6797C126.98 35.0079 126.183 36.2179 125.171 37.2397C124.159 38.2614 122.951 39.0745 121.619 39.6319C120.286 40.1892 118.855 40.4797 117.408 40.4866ZM128.289 0.545089V18.5873C126.919 17.0717 125.243 15.8563 123.369 15.0193C121.495 14.1822 119.465 13.7421 117.408 13.7273C115.322 13.7336 113.258 14.1473 111.335 14.9447C109.412 15.7421 107.667 16.9074 106.202 18.3737C104.736 19.8399 103.579 21.5779 102.796 23.4879C102.013 25.3977 101.62 27.4418 101.64 29.5023C101.62 31.5628 102.013 33.6067 102.796 35.5167C103.579 37.4266 104.736 39.1647 106.202 40.6309C107.667 42.097 109.412 43.2625 111.335 44.0599C113.258 44.8573 115.322 45.271 117.408 45.2773C119.465 45.2644 121.496 44.8252 123.371 43.988C125.245 43.1508 126.921 41.9344 128.289 40.4173V44.4824H133.149V0.545089H128.289Z" fill="white"/>
<path fill-rule="evenodd" clip-rule="evenodd" d="M41.6297 29.5022C41.6068 28.0726 41.8712 26.6527 42.4078 25.3247C42.9443 23.9968 43.7421 22.7873 44.7552 21.766C45.7683 20.7449 46.9764 19.9324 48.3095 19.3758C49.6426 18.8192 51.0742 18.5294 52.5215 18.5232C54.3479 18.5034 56.1475 18.9576 57.7405 19.8403C59.3335 20.7232 60.664 22.0037 61.5989 23.5538L41.7161 30.8412C41.66 30.3969 41.6312 29.9498 41.6297 29.5022ZM52.5215 40.4812C50.6741 40.4797 48.8582 40.007 47.25 39.1088C45.6417 38.2106 44.2954 36.9174 43.3414 35.3544L67.9386 26.3654L67.8144 25.8799C66.9442 22.0519 64.6398 18.6913 61.3641 16.4732C58.0886 14.2551 54.0846 13.3441 50.1568 13.9231C46.2291 14.5021 42.6688 16.5284 40.1914 19.5946C37.714 22.6608 36.5031 26.5397 36.802 30.4518C36.9696 34.1089 38.4364 37.5905 40.9448 40.2851C43.453 42.9798 46.8424 44.7148 50.5172 45.1854C54.192 45.6562 57.9171 44.8323 61.0381 42.8588C64.159 40.8852 66.4761 37.888 67.5822 34.3941L62.9652 32.9112C62.2701 35.1089 60.8814 37.0292 59.0022 38.3913C57.1232 39.7534 54.8522 40.4858 52.5215 40.4812Z" fill="white"/>
<path fill-rule="evenodd" clip-rule="evenodd" d="M37.6014 14.5221V19.3235C36.3546 19.2973 35.1077 19.3597 33.87 19.5101C29.4419 20.2197 24.8951 25.1224 24.8951 29.2141V44.4823H20.0351V14.5221H24.8951V19.0834C27.1342 16.8596 30.0007 15.3553 33.1194 14.7676C34.6051 14.576 36.1032 14.494 37.6014 14.5221Z" fill="white"/>
<path fill-rule="evenodd" clip-rule="evenodd" d="M10.3626 12.0519V14.5219H17.1127V19.3232H10.3626V44.4821H5.50262V19.318H0V14.5165H5.51342V12.0519C5.51342 5.29275 10.7244 0.000651957 17.3826 0.000651957C19.5969 -0.0247674 21.7542 0.693799 23.5008 2.03853L20.4282 5.77288C19.5478 5.13129 18.4764 4.79722 17.3826 4.82329C13.446 4.82329 10.3626 8.02416 10.3626 12.0786" fill="white"/>
<path fill-rule="evenodd" clip-rule="evenodd" d="M148.976 45.2771C143.068 45.2771 138.829 43.1432 135.611 38.9287L139.391 36.1119C141.702 39.1368 144.574 40.6037 148.981 40.6037C151.989 40.6037 157.275 39.7129 157.275 36.336C157.275 33.77 155.38 32.5376 148.494 31.2999L146.638 30.9639C139.779 29.6728 136.691 27.0054 136.691 22.2735C136.691 18.0056 140.724 13.7112 149.181 13.7112C157.729 13.7112 160.958 19.1739 161.11 19.4088L159.112 20.6624L157.14 21.9535C157.038 21.8094 155.039 18.4004 149.186 18.4004C143.63 18.4004 141.432 20.7157 141.432 22.2841C141.432 23.1804 141.038 25.5491 147.528 26.7707C148.138 26.8881 148.749 26.9948 149.349 27.1015C155.455 28.2005 162 29.4488 162 36.3466C162 39.5475 160.121 42.2149 156.703 43.7193C154.264 44.7607 151.633 45.2911 148.976 45.2771Z" fill="white"/>
</svg>
