<svg width="171" height="44" viewBox="0 0 171 44" fill="none" xmlns="http://www.w3.org/2000/svg">
<path d="M96.9374 14.0222C96.9374 9.00194 97.0237 4.32785 97.2827 0L84.0757 2.51016V3.72195L85.3705 3.89507C86.32 3.98163 86.9243 4.32785 87.2696 4.8472C87.6148 5.4531 87.8738 6.31867 88.0464 7.61702C88.2191 10.1272 88.3917 15.8399 88.3054 24.8419C88.3054 33.7573 88.2191 39.3835 88.0464 41.5474C92.794 42.5861 96.5058 43.0189 99.268 43.0189C104.447 43.0189 108.504 41.5474 111.439 38.5179C114.374 35.575 115.928 31.4202 115.928 26.3134C115.928 22.2452 114.806 18.8694 112.561 16.1862C110.317 13.5029 107.468 12.2045 104.102 12.2045C101.858 12.2045 99.527 12.8104 96.9374 14.0222ZM97.1964 40.6818C97.0237 37.912 96.8511 29.6025 96.8511 16.0131C97.628 15.7534 98.6638 15.5803 99.9586 15.5803C102.03 15.5803 103.67 16.619 104.879 18.7829C106.087 20.9468 106.692 23.5435 106.692 26.8327C106.692 30.9009 106.001 34.19 104.62 36.9599C103.239 39.6431 101.512 41.0281 99.3544 41.0281C98.6638 40.8549 97.9732 40.7684 97.1964 40.6818ZM34.528 0.865571H0V2.59671L1.81272 2.76983C3.19384 3.0295 4.14336 3.54884 4.7476 4.32785C5.35184 5.19342 5.69712 6.57834 5.78344 8.48259C6.474 17.8308 6.474 26.573 5.78344 34.6228C5.6108 36.5271 5.26552 37.912 4.7476 38.7776C4.14336 39.6431 3.19384 40.1625 1.81272 40.3356L0 40.5953V42.3264H22.2706V40.5953L19.9399 40.4222C19.3712 40.3744 18.818 40.2118 18.3136 39.944C17.8092 39.6763 17.3641 39.3089 17.005 38.8641C16.4008 37.9986 16.0555 36.6136 15.9692 34.7094C15.7102 31.2471 15.5376 27.2655 15.5376 22.8511L20.1989 22.9376C22.7022 23.0242 24.4286 24.9284 25.2918 28.7369H27.0182V14.6281H25.2918C24.4286 18.3501 22.7885 20.2544 20.1989 20.3409L15.5376 20.4275C15.5376 12.6373 15.7102 7.09768 15.9692 3.72195H22.7885C27.6224 3.72195 30.9026 6.83801 32.8016 13.0701L34.8733 12.4642L34.528 0.865571ZM30.471 27.5252C30.471 32.0261 31.7658 35.7481 34.2691 38.691C36.7723 41.634 40.4841 43.0189 45.1454 43.0189C49.8067 43.0189 53.6047 41.5474 56.367 38.5179C59.1292 35.575 60.424 31.853 60.424 27.352C60.424 22.8511 59.1292 19.1291 56.6259 16.1862C54.1227 13.2432 50.4109 11.8583 45.7496 11.8583C41.0883 11.8583 37.2903 13.3298 34.528 16.3593C31.7658 19.3022 30.471 23.0242 30.471 27.5252ZM49.7203 17.6576C50.7562 20.1678 51.1878 23.457 51.1878 27.4386C51.1878 36.6136 49.2887 41.1146 45.577 41.1146C43.6779 41.1146 42.2105 39.8163 41.1747 37.2195C40.1388 34.6228 39.7072 31.3337 39.7072 27.4386C39.7072 18.3501 41.6063 13.8491 45.318 13.8491C47.2171 13.7626 48.6845 15.0609 49.7203 17.6576ZM122.661 38.691C125.509 41.5474 129.135 43.0189 133.451 43.0189C136.127 43.0189 138.457 42.4995 140.529 41.3743C142.601 40.3356 144.241 39.0372 145.363 37.4792L144.5 36.4405C142.601 37.912 140.443 38.6045 137.939 38.6045C134.487 38.6045 131.811 37.4792 129.998 35.1422C128.099 32.8051 127.236 29.8622 127.408 26.0537H145.881C145.881 21.8989 144.845 18.5232 142.687 15.8399C140.529 13.2432 137.508 11.9449 133.623 11.9449C128.79 11.9449 125.078 13.5029 122.402 16.5324C119.726 19.5619 118.431 23.2839 118.431 27.6983C118.431 32.1992 119.812 35.8346 122.661 38.691ZM129.048 16.9652C129.998 14.8878 131.206 13.8491 132.847 13.8491C135.436 13.8491 136.731 17.1383 136.731 23.8032L127.581 23.9763C127.667 21.3796 128.099 19.0426 129.048 16.9652ZM169.101 13.5029C166.77 12.4642 163.835 11.8583 160.296 11.8583C156.671 11.8583 153.822 12.8104 151.664 14.6281C149.506 16.4458 148.384 18.6963 148.384 21.3796C148.384 23.7166 149.075 25.5343 150.37 26.8327C151.664 28.1311 153.736 29.2563 156.412 30.2084C158.829 31.074 160.555 31.9396 161.418 32.7186C162.282 33.5841 162.8 34.5363 162.8 35.8346C162.8 37.0464 162.368 38.1717 161.418 39.0372C160.555 39.9894 159.347 40.4222 157.793 40.4222C153.995 40.4222 151.146 37.6523 149.161 32.1127L147.694 32.5455L148.039 41.2012C151.146 42.413 154.599 43.0189 158.397 43.0189C162.368 43.0189 165.389 42.1533 167.634 40.3356C169.878 38.6045 171 36.0943 171 32.9782C171 30.9009 170.482 29.1697 169.36 27.8714C168.238 26.573 166.425 25.4478 163.835 24.4091C160.987 23.3704 159.002 22.4183 157.966 21.5527C156.93 20.6871 156.412 19.6485 156.412 18.3501C156.412 17.0517 156.757 16.0131 157.534 15.1475C158.311 14.2819 159.26 13.9357 160.469 13.9357C163.922 13.9357 166.425 16.4458 167.979 21.3796L169.446 20.9468L169.101 13.5029ZM86.0611 12.7239C84.8526 12.118 83.5578 11.8583 82.0904 11.8583C80.6229 11.8583 79.1555 12.4642 77.5154 13.676C75.8753 14.8878 74.6668 16.5324 73.7173 18.7829L73.8036 11.8583L60.683 14.455V15.6668L61.9778 15.7534C63.6179 15.9265 64.5674 17.2249 64.74 19.5619C65.2579 24.9284 65.2579 30.6412 64.74 36.7002C64.5674 39.0372 63.6179 40.249 61.9778 40.5087L60.683 40.6818V42.3264H78.9828V40.6818L76.6522 40.5087C75.0121 40.3356 74.0626 39.0372 73.89 36.7002C73.372 31.6799 73.2857 26.3134 73.7173 20.7737C74.2352 19.9081 75.3574 19.3888 77.0838 19.2157C78.8102 19.0426 80.7956 19.5619 82.8672 20.7737L86.0611 12.7239Z" fill="white"/>
</svg>
