<svg width="180" height="41" viewBox="0 0 180 41" fill="none" xmlns="http://www.w3.org/2000/svg">
<path fill-rule="evenodd" clip-rule="evenodd" d="M58.1771 27.9445C60.2014 27.9445 62.0608 27.0951 62.8759 25.6139H68.2463C66.8741 29.5013 62.9353 32.2981 57.8807 32.2981C51.5936 32.2981 47.1315 27.7919 47.1315 21.5404C47.1315 15.4194 51.6747 10.8675 57.923 10.8675C60.9527 10.8675 63.696 11.9492 65.6454 13.982C67.5377 15.9551 68.7074 18.8508 68.6393 22.5942H52.08L52.1186 22.9736C52.2532 24.2983 52.8161 25.5464 53.8346 26.4631C54.8547 27.3814 56.3065 27.9445 58.1771 27.9445ZM52.3378 19.0458L52.2377 19.4696H63.0654L62.9567 19.0404C62.5779 17.5464 61.813 16.4998 60.8629 15.8296C59.9172 15.1624 58.8078 14.882 57.7536 14.882C54.9282 14.882 52.9253 16.5582 52.3378 19.0458Z" fill="white"/>
<path d="M90.9775 31.832V19.7607C90.9775 17.0674 90.2326 14.8451 88.8969 13.3016C87.5662 11.7639 85.6221 10.8675 83.15 10.8675C80.4928 10.8675 78.4103 12.0117 77.3838 13.5922L76.7509 14.5666V11.3336H71.6387V31.832H76.7509V21.837C76.7509 19.749 77.2725 18.1566 78.1819 17.0805C79.0965 15.9982 80.3725 15.4753 81.795 15.4753C83.1014 15.4753 84.1392 15.9858 84.8393 16.9278C85.5288 17.8557 85.8653 19.1671 85.8653 20.7353V31.832H90.9775Z" fill="white"/>
<path d="M104.516 32.2981C110.015 32.2981 113.685 28.9465 114.913 24.4275H109.567C108.693 26.3302 107.044 27.7326 104.516 27.7326C102.902 27.7326 101.486 27.125 100.475 26.0392C99.4649 24.9547 98.8793 23.4153 98.8793 21.5827C98.8793 19.7502 99.4649 18.2109 100.475 17.1264C101.486 16.0406 102.902 15.433 104.516 15.433C107.044 15.433 108.693 16.8352 109.567 18.7381H114.913C113.685 14.2191 110.015 10.8675 104.516 10.8675C98.273 10.8675 93.7248 15.626 93.7248 21.5827C93.7248 27.5395 98.273 32.2981 104.516 32.2981Z" fill="white"/>
<path fill-rule="evenodd" clip-rule="evenodd" d="M127.129 32.2981C133.083 32.2981 137.921 27.5749 137.921 21.5827C137.921 15.5906 133.083 10.8675 127.129 10.8675C121.175 10.8675 116.338 15.5906 116.338 21.5827C116.338 27.5749 121.175 32.2981 127.129 32.2981ZM127.129 27.5631C123.871 27.5631 121.492 25.0162 121.492 21.5827C121.492 18.1494 123.871 15.6024 127.129 15.6024C130.391 15.6024 132.724 18.1532 132.724 21.5827C132.724 25.0124 130.391 27.5631 127.129 27.5631Z" fill="white"/>
<path d="M153.81 12.5564C155.156 13.574 156.052 15.0302 156.293 16.8737H151.107C150.91 16.1327 150.513 15.5995 149.991 15.2481C149.415 14.8596 148.718 14.7125 148.037 14.7125C147.256 14.7125 146.561 14.8678 146.049 15.1888C145.524 15.5181 145.194 16.0236 145.194 16.6673C145.194 17.3978 145.558 17.9088 146.076 18.2608C146.574 18.5991 147.228 18.8008 147.868 18.9507L151.591 19.9667L151.594 19.9673C153.626 20.4866 155.025 21.2756 155.917 22.3014C156.804 23.3219 157.22 24.6125 157.22 26.2016C157.22 28.0712 156.35 29.5807 154.861 30.6346C153.362 31.6951 151.225 32.2981 148.714 32.2981C143.529 32.2981 139.919 29.5081 139.518 25.7834H144.905C145.081 26.666 145.561 27.3401 146.227 27.7992C146.96 28.3036 147.901 28.5378 148.883 28.5378C149.829 28.5378 150.591 28.3629 151.129 28.0169C151.682 27.6602 151.98 27.13 151.98 26.4983C151.98 25.8418 151.731 25.3272 151.21 24.9274C150.717 24.5481 149.991 24.2806 149.053 24.0456L149.051 24.0453L145.073 23.0288C143.293 22.5783 142.019 21.746 141.19 20.6776C140.36 19.6086 139.955 18.2773 139.955 16.7945C139.955 15.0842 140.706 13.6164 142.089 12.5666C143.48 11.5113 145.528 10.8675 148.121 10.8675C150.392 10.8675 152.369 11.4668 153.81 12.5564Z" fill="white"/>
<path fill-rule="evenodd" clip-rule="evenodd" d="M174.259 13.5572L174.887 14.4713V11.3336H180V31.832H174.887V28.6943L174.259 29.6084C173.394 30.8681 171.258 32.2981 168.446 32.2981C163.042 32.2981 158.84 27.4499 158.84 21.5827C158.84 15.7157 163.042 10.8675 168.446 10.8675C171.258 10.8675 173.394 12.2975 174.259 13.5572ZM175.353 21.5827C175.353 18.1177 173.07 15.4753 169.674 15.4753C166.279 15.4753 163.994 18.1177 163.994 21.5827C163.994 25.0479 166.279 27.6903 169.674 27.6903C173.07 27.6903 175.353 25.0479 175.353 21.5827Z" fill="white"/>
<path fill-rule="evenodd" clip-rule="evenodd" d="M2.24413 20.5187L2.27646 20.4767L2.24403 20.4346C0.873587 18.6592 -2.11853e-06 16.4993 0 13.9381C3.59075e-06 9.68783 2.18687 6.43986 5.28082 4.22687C8.30726 2.06218 12.2693 0.812383 16.301 0.291143C20.3587 -0.233431 24.6888 -0.0473242 28.5922 0.834812C29.5255 1.04576 30.7452 1.34021 31.876 1.71804C33.0098 2.0969 34.0424 2.55598 34.6111 3.09134C35.5943 4.01707 35.5598 5.38922 34.9623 6.39634C34.3651 7.40283 33.2204 8.02189 31.9961 7.46394C30.5259 6.79381 29.0268 6.26624 27.4473 5.90927C24.158 5.16595 20.4415 5.00131 16.9671 5.4505C13.4668 5.90303 10.4113 6.9515 8.30327 8.45929C6.26248 9.91899 5.19809 11.7178 5.19809 13.9381C5.19809 15.0277 5.51383 16.0413 6.15464 16.9784L6.1917 17.0326L6.24758 16.9982C9.40116 15.0544 13.3465 13.9151 17.1375 13.42C21.1028 12.9022 25.1815 13.0525 28.3834 13.9256C29.9751 14.3596 31.5245 15.019 32.7277 16.0161C33.9792 17.0531 34.9476 18.5521 34.9476 20.4675C34.9476 22.3834 33.9787 23.8823 32.726 24.9184C31.5221 25.9141 29.9723 26.5716 28.3809 27.0038C25.1793 27.8732 21.1014 28.0203 17.1378 27.503C13.3498 27.0086 9.40854 25.8741 6.25727 23.9436L6.20138 23.9093L6.16445 23.9636C5.5183 24.9121 5.19809 25.9414 5.19809 27.0526C5.19809 29.2965 6.26997 31.0894 8.31435 32.5327C10.4308 34.0268 13.4993 35.052 17.0138 35.4819C20.5015 35.9083 24.228 35.7229 27.5152 34.9737C29.2033 34.589 30.7075 34.0718 31.9807 33.4556C33.2032 32.9031 34.3455 33.5232 34.9409 34.5292C35.537 35.5361 35.5706 36.9067 34.5882 37.8316C34.0563 38.3324 33.0422 38.7816 31.9204 39.159C30.8021 39.5353 29.5891 39.8366 28.6695 40.0462C24.7802 40.9324 20.4493 41.1429 16.3833 40.6457C12.3443 40.1516 8.36312 38.9333 5.31814 36.7838C2.20089 34.5832 0 31.3324 0 27.0526C0 24.4776 0.872514 22.3052 2.24413 20.5187ZM10.9501 20.4017L10.8055 20.465L10.9502 20.528C12.9669 21.4066 15.3458 22.0229 17.8099 22.3443C21.2836 22.7978 24.6431 22.6284 27.0195 21.9831C28.6535 21.5394 29.138 21.2252 29.4732 20.9626C29.6486 20.8252 29.7432 20.6522 29.7429 20.4717C29.7426 20.2914 29.6473 20.1188 29.4734 19.9821C29.1407 19.7205 28.6093 19.379 27.017 18.9449C24.6409 18.297 21.2822 18.125 17.8101 18.5785C15.3453 18.9004 12.9663 19.5187 10.9501 20.4017Z" fill="white"/>
</svg>
