<svg width="279" height="27" viewBox="0 0 279 27" fill="none" xmlns="http://www.w3.org/2000/svg">
<path d="M17.7447 18.291C17.7447 16.5724 16.3932 15.3273 14.6732 15.3273H4.93201V21.2898H14.6556C16.3406 21.2898 17.7272 19.9745 17.7272 18.291M17.341 7.99692C17.341 6.38354 16.0247 5.13844 14.3748 5.13844H4.93201V10.8905H14.3748C16.0598 10.8905 17.341 9.64537 17.341 7.99692ZM0 0.719179H14.9891C19.1664 0.719179 21.9922 3.68289 21.9922 7.36561C21.9922 10.0487 20.5179 12.1882 18.517 13.0124C20.5179 13.7314 22.3784 16.0112 22.3784 18.9749C22.3784 22.6927 19.5174 25.7266 15.2524 25.7266H0V0.719179Z" fill="white"/>
<path d="M26.8187 0.719179H31.7509V21.3073H44.3528V25.7266H26.8187V0.719179Z" fill="white"/>
<path d="M46.1783 15.1519V0.719179H51.1104V15.5553C51.1104 19.3783 53.8659 22.0263 57.4115 22.0263C60.9569 22.0263 63.7476 19.3783 63.7476 15.5553V0.719179H68.6795V15.1519C68.6795 20.904 64.4672 26.4455 57.4115 26.4455C50.3555 26.4455 46.1783 20.904 46.1783 15.1519Z" fill="white"/>
<path d="M73.4883 0.719179H93.7431V5.13844H78.4381V10.908H93.7431V15.3273H78.4381V21.3073H93.7431V25.7266H73.4883V0.719179Z" fill="white"/>
<path d="M98.6401 0.719179H106.977L113.19 19.0801L119.456 0.719179H127.793V25.7266H123.037V4.928L115.806 25.7266H110.628L103.397 4.928V25.7266H98.6401V0.719179Z" fill="white"/>
<path d="M180.642 7.99692C180.642 6.38354 179.325 5.13844 177.675 5.13844H167.478V10.8905H177.675C179.325 10.8905 180.642 9.64537 180.642 7.99692ZM177.851 0.719179C181.958 0.719179 185.293 3.89333 185.293 8.01447C185.293 11.5218 182.853 14.3803 179.606 15.1344L185.293 25.744H180.097L174.516 15.3448H167.46V25.744H162.528V0.719179H177.851Z" fill="white"/>
<path d="M207.794 7.99692C207.794 6.38354 206.477 5.13844 204.828 5.13844H194.63V10.8905H204.828C206.477 10.8905 207.794 9.64537 207.794 7.99692ZM205.003 0.719179C209.11 0.719179 212.445 3.89333 212.445 8.01447C212.445 11.5218 210.005 14.3803 206.758 15.1344L212.445 25.744H207.25L201.668 15.3448H194.613V25.744H189.68V0.719179H205.003Z" fill="white"/>
<path d="M237.509 13.2227C237.509 8.36503 233.683 4.43679 228.821 4.43679C223.959 4.43679 220.133 8.36503 220.133 13.2227C220.133 18.0804 223.959 22.0086 228.821 22.0086C233.683 22.0086 237.509 18.0804 237.509 13.2227ZM215.376 13.2227C215.376 5.75206 221.344 0 228.821 0C236.297 0 242.266 5.75206 242.266 13.2227C242.266 20.6933 236.263 26.4453 228.821 26.4453C221.379 26.4453 215.376 20.6583 215.376 13.2227Z" fill="white"/>
<path d="M244.53 0.719179H249.426L253.78 21.0443L258.905 0.719179H264.627L269.734 21.0443L274.104 0.719179H279L273.928 25.7266H266.347L261.766 7.75142L257.183 25.7266H249.602L244.53 0.719179Z" fill="white"/>
<path d="M136.622 25.7262C136.534 25.2003 136.481 24.674 136.481 24.1128C136.481 19.2552 140.308 15.327 145.17 15.327C150.031 15.327 153.857 19.2552 153.857 24.1128C153.857 24.6567 153.805 25.2003 153.717 25.7262H158.526C158.597 25.2003 158.632 24.6567 158.632 24.1128C158.632 16.6423 152.629 10.8902 145.187 10.8902C137.745 10.8902 131.742 16.6423 131.742 24.1128C131.742 24.6567 131.777 25.2003 131.848 25.7262H136.657H136.622Z" fill="white"/>
</svg>
