<svg width="276" height="27" viewBox="0 0 276 27" fill="none" xmlns="http://www.w3.org/2000/svg">
<path d="M39.7173 0.702359H50.1324C56.2726 0.702359 59.537 3.1887 59.537 7.69519C59.537 12.2017 58.3712 11.8909 56.3503 12.7456C59.0707 13.6002 60.5475 15.3096 60.5475 18.4952C60.5475 23.1571 57.2053 25.7989 50.8319 25.7989H39.7173V0.702359ZM49.5883 10.8808C51.2205 10.8808 52.3086 10.6477 52.8527 10.1038C53.3968 9.55995 53.63 8.93836 53.63 8.00598C53.63 7.07361 53.3968 6.45202 52.8527 5.90813C52.3086 5.36425 51.2205 5.13115 49.5883 5.13115H45.4689V10.8031H49.5883V10.8808ZM50.2101 21.2924C51.9977 21.2924 53.2413 21.0593 53.7854 20.4377C54.4072 19.8938 54.7181 19.1168 54.7181 18.1844C54.7181 17.2521 54.4072 16.4751 53.7854 15.9312C53.1636 15.3873 51.9977 15.0765 50.2101 15.0765H45.4689V21.2924H50.2101ZM88.3728 0.702359V17.5629C88.3728 20.5931 87.6733 22.5355 86.2743 23.9341C84.4866 25.7212 81.9994 26.265 79.2013 26.265C73.5275 26.265 70.1076 23.7787 70.1076 17.7183V15.3873H75.7815V17.6406C75.7815 20.5154 76.9473 21.5255 79.2013 21.5255C81.4554 21.5255 82.6212 20.5154 82.6212 17.6406V5.59734H72.5948V0.702359H88.3728ZM101.586 0.702359H119.618V5.51964H107.338V10.57H117.286V15.3873H107.338V20.9816H119.618V25.7989H101.586V0.702359ZM170.916 5.59734H163.688V0.702359H183.896V5.59734H176.668V25.7989H170.916V5.59734ZM194.311 0.702359H204.727C210.867 0.702359 214.131 3.1887 214.131 7.69519C214.131 12.2017 212.965 11.8909 210.945 12.7456C213.665 13.6002 215.142 15.3096 215.142 18.4952C215.142 23.1571 211.799 25.7989 205.426 25.7989H194.311V0.702359ZM204.105 10.8808C205.737 10.8808 206.825 10.6477 207.369 10.1038C207.913 9.55995 208.146 8.93836 208.146 8.00598C208.146 7.07361 207.913 6.45202 207.369 5.90813C206.825 5.36425 205.737 5.13115 204.105 5.13115H199.985V10.8031H204.105V10.8808ZM204.727 21.2924C206.514 21.2924 207.758 21.0593 208.302 20.4377C208.924 19.8938 209.235 19.1168 209.235 18.1844C209.235 17.2521 208.924 16.4751 208.302 15.9312C207.68 15.3873 206.514 15.0765 204.727 15.0765H199.985V21.2924H204.727ZM260.999 16.242L251.828 0.702359H258.123L264.03 11.1139L269.937 0.702359H276L266.828 16.242V25.7989H261.077V16.242H260.999ZM150.164 15.465C149.853 16.7859 149.231 18.029 148.376 19.0391C146.977 20.6708 144.879 21.6809 142.78 21.6809C140.604 21.6809 138.505 20.6708 137.184 19.0391C135.785 17.4075 135.085 15.3096 135.085 13.2895C135.085 11.1916 135.785 9.09376 137.184 7.53979C138.583 5.90813 140.681 4.89806 142.78 4.89806C144.956 4.89806 147.055 5.90813 148.376 7.53979C149.153 8.39447 149.698 9.48225 150.008 10.57H155.916C155.371 7.92829 153.972 5.51964 152.107 3.73259C149.62 1.32394 146.122 0.00307558 142.78 0.00307558C139.36 0.00307558 135.94 1.32394 133.453 3.73259C130.888 6.14123 129.334 9.71534 129.334 13.3672C129.334 17.019 130.888 20.5931 133.453 23.0017C135.94 25.4104 139.438 26.7312 142.78 26.7312C146.2 26.7312 149.62 25.4104 152.107 23.0017C154.128 21.0593 155.527 18.4175 155.993 15.6204H150.164V15.465ZM247.164 25.4104L238.07 0.702359H231.775L222.681 25.4104L222.525 25.8766H228.821C228.977 25.7212 229.132 25.4881 229.21 25.3327C229.365 25.1773 229.443 25.0996 229.598 24.9442C230.22 24.3226 230.92 23.8564 231.775 23.4679C232.707 23.0017 233.796 22.7686 234.884 22.7686C235.972 22.7686 237.06 23.0017 237.993 23.4679C238.692 23.7787 239.314 24.1672 239.858 24.7111C240.091 24.9442 240.324 25.1773 240.558 25.4104C240.713 25.5658 240.868 25.7212 240.946 25.9543H247.242L247.086 25.4881L247.164 25.4104ZM234.961 17.8736C233.562 17.8736 232.163 18.1067 230.764 18.4952L231.308 16.9413L234.806 6.37432L238.381 16.9413L238.848 18.4175C237.604 18.029 236.283 17.8736 234.961 17.8736ZM5.75162 13.2895C5.75162 11.1916 6.52886 9.09376 7.92791 7.53979C9.40467 5.90813 11.5032 4.97576 13.6795 4.97576C15.8558 4.97576 18.0321 5.98583 19.4311 7.53979C20.9079 9.17146 21.6074 11.1916 21.6074 13.2895C21.6074 13.9887 21.5297 14.7657 21.2965 15.465H27.1259C27.2813 14.7657 27.3591 14.0664 27.2813 13.2895C27.2813 9.71534 25.7268 6.14123 23.1619 3.73259C20.6747 1.32394 17.1771 -0.0746226 13.6795 0.00307558C10.1819 0.00307558 6.68431 1.32394 4.1194 3.73259C1.55449 6.14123 0 9.63764 0 13.2895C0 13.9887 0 14.688 0.155449 15.465H5.98479C5.82934 14.7657 5.75162 14.0664 5.67389 13.2895H5.75162Z" fill="white"/>
</svg>
