<svg width="184" height="40" viewBox="0 0 184 40" fill="none" xmlns="http://www.w3.org/2000/svg">
<path d="M73.3907 4.50735V1.09132H50.7021V5.45761H66.7574L50.237 27.9385V31.3545H73.8557V26.9881H56.8293L73.3907 4.50735Z" fill="white"/>
<path d="M91.4936 10.2573C89.9024 9.39253 88.0637 8.96003 85.9797 8.96003C83.8959 8.96003 82.0994 9.42903 80.5082 10.3644C78.9172 11.3012 77.6771 12.6269 76.7909 14.3417C75.9032 16.0565 75.4595 18.0532 75.4595 20.3292C75.4595 22.6053 75.9165 24.5519 76.8332 26.2532C77.7487 27.953 79.0444 29.272 80.7203 30.2087C82.3962 31.1454 84.3609 31.6131 86.6143 31.6131C89.2056 31.6131 91.3677 30.8933 93.0993 29.4509C94.832 28.0099 95.8946 26.165 96.2894 23.9175H91.7254C91.4154 25.1565 90.7809 26.1149 89.8243 26.7927C88.8665 27.4704 87.6834 27.8079 86.2765 27.8079C84.5012 27.8079 83.0784 27.2454 82.0079 26.1217C80.9376 24.9979 80.3466 23.4701 80.234 21.5397V21.2809H96.5424C96.6273 20.675 96.6683 20.0852 96.6683 19.5077C96.6405 17.3755 96.1689 15.5169 95.2534 13.9309C94.338 12.3463 93.0834 11.1208 91.4922 10.256L91.4936 10.2573ZM80.4036 17.8662C80.5732 16.31 81.1986 15.0642 82.2848 14.1262C83.3685 13.1894 84.6575 12.7218 86.1507 12.7218C87.7563 12.7218 89.0864 13.1759 90.1436 14.0842C91.1995 14.9923 91.8274 16.2531 92.0235 17.8676H80.405L80.4036 17.8662Z" fill="white"/>
<path d="M116.337 10.3862C114.661 9.43591 112.739 8.96003 110.57 8.96003C108.402 8.96003 106.478 9.43591 104.802 10.3862C103.128 11.3378 101.831 12.6717 100.915 14.3851C99.9996 16.0998 99.5426 18.0668 99.5426 20.2859C99.5426 22.505 99.9996 24.5166 100.915 26.23C101.831 27.9449 103.126 29.272 104.802 30.2073C106.478 31.1441 108.4 31.6117 110.57 31.6117C112.74 31.6117 114.661 31.1441 116.337 30.2073C118.012 29.272 119.309 27.9449 120.224 26.23C121.14 24.5166 121.597 22.5334 121.597 20.2859C121.597 18.0383 121.14 16.0998 120.224 14.3851C119.309 12.6717 118.013 11.3378 116.337 10.3862ZM115.197 25.5821C114.027 26.9513 112.485 27.6358 110.57 27.6358C108.656 27.6358 107.119 26.9513 105.964 25.5821C104.809 24.213 104.232 22.448 104.232 20.2859C104.232 18.1237 104.809 16.3602 105.964 14.9897C107.119 13.6206 108.655 12.9359 110.57 12.9359C112.486 12.9359 114.027 13.6206 115.197 14.9897C116.365 16.3588 116.949 18.1237 116.949 20.2859C116.949 22.448 116.365 24.213 115.197 25.5821Z" fill="white"/>
<path d="M131.612 26.7062C131.274 26.347 131.104 25.7328 131.104 24.8695V13.3266H136.302V9.21935H131.104V3.03652H126.499V9.21935H122.738V13.3266H126.499V25.3452C126.499 27.3921 126.971 28.905 127.915 29.885C128.857 30.8651 130.358 31.3545 132.414 31.3545H136.808V27.2471H133.343C132.526 27.2471 131.949 27.0667 131.612 26.7062Z" fill="white"/>
<path d="M157.384 25.7344V17.0018C157.384 14.4073 156.595 12.4199 155.019 11.0359C153.442 9.65324 151.203 8.96186 148.3 8.96186C145.569 8.96186 143.357 9.57461 141.667 10.7986C139.976 12.0241 139.02 13.7456 138.793 15.9648H143.272C143.441 14.9847 143.954 14.1998 144.814 13.6088C145.674 13.0178 146.765 12.7223 148.09 12.7223C149.582 12.7223 150.751 13.0746 151.596 13.7809C152.442 14.4871 152.864 15.4605 152.864 16.6995V18.0402H147.414C144.398 18.0402 142.104 18.6529 140.526 19.8769C138.948 21.1024 138.16 22.8525 138.16 25.1285C138.16 27.1469 138.892 28.7329 140.358 29.8838C141.822 31.0374 143.765 31.6135 146.188 31.6135C149.316 31.6135 151.696 30.346 153.329 27.8097C153.329 28.962 153.637 29.8418 154.258 30.4464C154.876 31.0523 155.892 31.3546 157.3 31.3546H159.708V27.2906H158.822C157.862 27.2906 157.384 26.7727 157.384 25.7344ZM152.864 22.275C152.836 24.0047 152.294 25.3887 151.236 26.4257C150.181 27.4641 148.708 27.9832 146.822 27.9832C145.581 27.9832 144.604 27.6959 143.885 27.1185C143.168 26.5424 142.809 25.7777 142.809 24.8262C142.809 23.7308 143.19 22.9026 143.949 22.3401C144.71 21.7774 145.793 21.4968 147.203 21.4968H152.864V22.275Z" fill="white"/>
<path d="M182.691 14.2563C181.817 12.5414 180.605 11.2307 179.057 10.321C177.507 9.41278 175.746 8.96003 173.776 8.96003C170.82 8.96003 168.466 10.1422 166.72 12.5049L166.171 9.21903H162.199V40H166.761V28.2418C167.466 29.2802 168.411 30.1003 169.593 30.7062C170.776 31.3122 172.17 31.6144 173.775 31.6144C175.745 31.6144 177.507 31.1467 179.056 30.2101C180.604 29.2747 181.816 27.9475 182.689 26.2328C183.562 24.5194 184 22.5361 184 20.2886C184 18.0411 183.563 15.9725 182.689 14.2577L182.691 14.2563ZM177.601 25.6038C176.431 26.9865 174.903 27.6778 173.016 27.6778C171.13 27.6778 169.608 26.9865 168.453 25.6038C167.297 24.2198 166.72 22.4183 166.72 20.1991C166.72 17.9801 167.297 16.287 168.453 14.9463C169.608 13.6056 171.129 12.9359 173.016 12.9359C174.904 12.9359 176.431 13.6138 177.601 14.9679C178.769 16.3236 179.354 18.0952 179.354 20.2859C179.354 22.4765 178.769 24.2198 177.601 25.6038Z" fill="white"/>
<path d="M10.948 1.74869C6.16017 7.09373 2.37255 13.8052 0.242262 20.7213C-0.202873 22.1664 -0.0279988 23.7374 0.712569 25.0497C1.87973 27.1196 2.82829 28.8006 3.99677 30.8705C4.73733 32.1827 5.98 33.1235 7.42536 33.4515C14.3435 35.0213 21.9174 35.0213 28.8369 33.4515C30.2822 33.1235 31.5249 32.1827 32.2656 30.8705C33.4326 28.8006 34.3812 27.1196 35.5497 25.0511C36.2903 23.7388 36.4652 22.1677 36.0201 20.7226C33.8898 13.8065 30.1035 7.09508 25.3142 1.74869C24.3141 0.631692 22.8965 0 21.4154 0H14.8469C13.3657 0 11.9496 0.630342 10.948 1.74869ZM4.12527 26.9189L18.1311 2.09843L32.137 26.9189H4.12527Z" fill="white"/>
</svg>
