<svg width="185" height="40" viewBox="0 0 185 40" fill="none" xmlns="http://www.w3.org/2000/svg">
<path d="M73.1918 28.393V20.022H80.3138V12.9454H72.9344V4.66058H64.6111V29.7739C64.6111 36.8504 68.9874 39.7846 74.9938 39.7846C81.8582 39.7846 84.3466 37.3683 84.3466 37.3683C82.1157 34.6066 81.3435 31.4999 81.3435 31.4999C77.1389 32.4492 73.1918 32.8807 73.1918 28.393Z" fill="white"/>
<path d="M54.8301 23.3012L52.2558 22.8697C49.2527 22.4383 48.223 21.9204 48.223 20.9711C48.223 19.8493 49.5958 19.2451 52.5134 19.2451C54.8301 19.2451 59.3778 20.0218 61.0081 20.8848V13.8945C58.5198 12.7726 55.4307 12.1685 51.9984 12.1685C44.6191 12.1685 39.8997 15.6206 39.8997 20.9711C39.8997 25.6314 42.3881 28.134 47.8797 28.9971L50.2824 29.3422C53.0281 29.7737 53.8004 30.2053 53.8004 31.1546C53.8004 32.2764 52.6849 32.7079 49.8534 32.7079C47.4507 32.7079 42.8171 31.5861 40.243 30.6367V37.9723C42.7314 39.0942 46.6784 39.7845 50.5398 39.7845C57.6617 39.7845 62.1236 36.4189 62.1236 31.1546C62.2095 26.667 59.8926 24.1642 54.8301 23.3012Z" fill="white"/>
<path d="M140.551 10.9601C140.551 8.11221 142.353 7.1629 144.241 7.1629C145.184 7.1629 146.128 7.33551 146.9 7.59441C147.415 5.35061 148.445 3.10681 150.333 1.4671C147.501 0.3452 144.326 0 142.868 0C135.917 0 132.228 4.4876 132.228 10.6149V12.945H122.36V11.0464C122.36 8.1985 124.162 7.2492 126.05 7.2492C126.994 7.2492 127.937 7.4218 128.71 7.6807C129.224 5.4369 130.254 3.1931 132.142 1.5534C129.31 0.4315 126.135 0.0863001 124.677 0.0863001C117.726 0.0863001 114.037 4.5739 114.037 10.7012V39.3528H122.617V19.9353H132.228V39.1803H140.808V19.9353H147.673V12.8587H140.465V10.9601H140.551Z" fill="white"/>
<path d="M0 4.6602C0 1.89861 1.88773 0 4.63354 0C7.37934 0 9.26708 1.89861 9.26708 4.6602C9.26708 7.4218 7.37934 9.32041 4.63354 9.32041C1.88773 9.2341 0 7.4218 0 4.6602Z" fill="white"/>
<path d="M4.63419 12.2544C3.00388 12.2544 1.45936 11.8229 0.172274 11.0462V39.18H9.18193V11.0462C7.80904 11.8229 6.26452 12.2544 4.63419 12.2544Z" fill="white"/>
<path d="M27.9743 12.2545C24.8853 12.2545 21.7105 13.2902 19.9085 15.7065L19.6512 12.9449H11.757V39.2665H20.3376V24.5955C20.3376 21.6613 22.5686 20.2804 24.7138 20.2804C26.7731 20.2804 29.0899 21.6613 29.0899 24.5955V39.1801H37.6704V22.0928C37.6704 15.8792 32.9512 12.2545 27.9743 12.2545Z" fill="white"/>
<path d="M102.798 15.6206C101.339 13.8084 98.7649 12.3413 95.0754 12.3413C88.125 12.3413 82.9766 18.2097 82.9766 26.0629C82.9766 33.9162 88.125 39.7846 95.0754 39.7846C98.7649 39.7846 101.253 38.3176 102.798 36.5052L103.055 39.2669H111.379V12.8591H103.055L102.798 15.6206ZM97.1347 32.104C93.7882 32.104 91.4714 29.6013 91.4714 26.0629C91.4714 22.5246 93.7882 20.022 97.1347 20.022C100.481 20.022 102.798 22.5246 102.798 26.0629C102.798 29.6875 100.481 32.104 97.1347 32.104Z" fill="white"/>
<path d="M178.22 15.9655H178.735V12.7723H179.935V12.2545H177.018V12.7723H178.22V15.9655Z" fill="white"/>
<path d="M181.136 13.2038L182.423 14.7572H182.595L183.967 13.2038V15.9655H184.482V12.2545H183.967L182.508 14.0668L181.051 12.2545H180.534V15.9655H181.136V13.2038Z" fill="white"/>
<path d="M162.346 12.3413C154.281 12.3413 148.274 18.2097 148.274 26.0629C148.274 33.9162 154.281 39.7846 162.346 39.7846C170.412 39.7846 176.418 33.9162 176.418 26.0629C176.418 18.2097 170.412 12.3413 162.346 12.3413ZM162.346 32.104C159.086 32.104 156.769 29.6013 156.769 26.0629C156.769 22.5246 159.086 20.022 162.346 20.022C165.607 20.022 167.923 22.5246 167.923 26.0629C167.923 29.6013 165.607 32.104 162.346 32.104Z" fill="white"/>
<path d="M176.42 35.4699C176.42 32.8809 178.136 31.1549 180.71 31.1549C183.284 31.1549 185 32.8809 185 35.4699C185 38.0589 183.198 39.7849 180.71 39.7849C178.221 39.7849 176.42 38.0589 176.42 35.4699Z" fill="white"/>
</svg>
